<?xml version="1.0" encoding="utf-8"?>
<!-- Generator: Adobe Illustrator 27.2.0, SVG Export Plug-In . SVG Version: 6.00 Build 0)  -->
<svg version="1.1" xmlns="http://www.w3.org/2000/svg" xmlns:xlink="http://www.w3.org/1999/xlink" x="0px" y="0px"
	 viewBox="0 0 90 90" style="enable-background:new 0 0 90 90;" xml:space="preserve">
<style type="text/css">
	.st0{display:none;}
	.st1{display:inline;}
	.st2{fill:#FFFFFF;}
	.st3{display:inline;fill:#FFFFFF;}
</style>
<g id="_x30_1" class="st0">
	<g class="st1">
		<path class="st2" d="M27.8,49.7c-0.4,0-0.8-0.1-1.1-0.4c-0.6-0.5-0.9-1.3-0.6-2l0.5-1.7c-2.5-0.4-4.3-2.6-4.3-5.2V29.3
			c0-2.9,2.4-5.3,5.3-5.3h19.4c2.9,0,5.3,2.4,5.3,5.3v11.1c0,2.9-2.4,5.3-5.3,5.3H35l-6.2,3.8C28.5,49.6,28.2,49.7,27.8,49.7z
			 M27.5,25.4c-2.1,0-3.8,1.7-3.8,3.8v11.1c0,2.1,1.7,3.8,3.8,3.8c0.2,0,0.4,0.1,0.6,0.3c0.1,0.2,0.2,0.4,0.1,0.6l-0.8,2.6
			c-0.1,0.3,0.1,0.4,0.1,0.5c0.1,0.1,0.3,0.2,0.5,0l6.4-3.9c0.1-0.1,0.2-0.1,0.4-0.1h12c2.1,0,3.8-1.7,3.8-3.8V29.3
			c0-2.1-1.7-3.8-3.8-3.8H27.5z"/>
		<path class="st2" d="M62.2,66c-0.3,0-0.7-0.1-1-0.3L55,62H43.1c-2.9,0-5.3-2.4-5.3-5.3v-8.9c0-0.4,0.3-0.7,0.7-0.7
			c0.4,0,0.7,0.3,0.7,0.7v8.9c0,2.1,1.7,3.8,3.8,3.8h12c0.1,0,0.3,0,0.4,0.1l6.4,3.9c0.2,0.1,0.4,0,0.5,0c0.1-0.1,0.2-0.2,0.1-0.5
			l-0.8-2.6c-0.1-0.2,0-0.4,0.1-0.6c0.1-0.2,0.3-0.3,0.6-0.3c2.1,0,3.8-1.7,3.8-3.8V45.6c0-2.1-1.7-3.8-3.8-3.8h-8.2
			c-0.4,0-0.7-0.3-0.7-0.7c0-0.4,0.3-0.7,0.7-0.7h8.2c2.9,0,5.3,2.4,5.3,5.3v11.1c0,2.6-1.9,4.7-4.3,5.2l0.5,1.7
			c0.2,0.7,0,1.5-0.6,2C63,65.9,62.6,66,62.2,66z"/>
		<path class="st2" d="M37.4,38.4c-0.9,0-1.5,0.7-1.5,1.6c0,0.9,0.6,1.5,1.5,1.5c0.9,0,1.5-0.6,1.5-1.5
			C38.9,39.1,38.2,38.4,37.4,38.4z"/>
		<path class="st2" d="M37.6,28.4c-1,0-2.1,0.3-2.8,0.8c-0.2,0.1-0.2,0.3-0.2,0.5l0.4,1.1c0.1,0.1,0.2,0.2,0.3,0.3
			c0.1,0,0.3,0,0.4-0.1c0.4-0.3,1-0.5,1.5-0.5c0.8,0,1.2,0.4,1.2,1.1c0,0.6-0.3,1.1-1.1,2.1c-0.9,1.1-1.3,2.3-1.2,3.4l0,0.5
			c0,0.2,0.2,0.4,0.5,0.4h1.4c0.1,0,0.2-0.1,0.3-0.1c0.1-0.1,0.1-0.2,0.1-0.3l0-0.5c0-0.8,0.2-1.5,0.9-2.3c0.9-1.1,1.6-2,1.6-3.3
			C41,29.9,40,28.4,37.6,28.4z"/>
		<path class="st2" d="M52.2,54.3h1.1c0.3,0,0.5-0.2,0.5-0.5l0.2-7.9c0-0.1,0-0.3-0.1-0.4c-0.1-0.1-0.2-0.2-0.4-0.2H52
			c-0.1,0-0.3,0.1-0.4,0.2s-0.1,0.2-0.1,0.4l0.2,7.9C51.7,54.1,52,54.3,52.2,54.3z"/>
		<path class="st2" d="M52.8,54.6c-0.8,0-1.5,0.7-1.5,1.5s0.6,1.5,1.5,1.5c0.9,0,1.5-0.6,1.5-1.5C54.3,55.3,53.7,54.6,52.8,54.6z"/>
		<path class="st2" d="M66.2,66H49.9c-0.4,0-0.7-0.3-0.7-0.7c0-0.4,0.3-0.7,0.7-0.7h16.3c0.4,0,0.7,0.3,0.7,0.7
			C66.9,65.7,66.6,66,66.2,66z"/>
		<path class="st2" d="M33.4,49.7H23.4c-0.4,0-0.7-0.3-0.7-0.7c0-0.4,0.3-0.7,0.7-0.7h10.1c0.4,0,0.7,0.3,0.7,0.7
			C34.1,49.4,33.8,49.7,33.4,49.7z"/>
	</g>
</g>
<g id="_x30_2" class="st0">
	<g class="st1">
		<g>
			<path class="st2" d="M45.2,29.4c-2.3,0-4.4,1.7-4.8,4c-0.4,2.3,0.9,4.6,3.1,5.4c2.2,0.8,4.7-0.2,5.9-2.2c1.1-2,0.6-4.7-1.2-6.1
				C47.4,29.8,46.3,29.4,45.2,29.4z M45.2,37.6c-1.8,0-3.3-1.5-3.3-3.3c0-1.8,1.5-3.3,3.3-3.3s3.3,1.5,3.3,3.3S47,37.6,45.2,37.6z"
				/>
			<path class="st2" d="M53.7,31.3c-0.3,0-0.6,0-0.9,0c-0.4,0,0-0.3,0.2-0.5c0.7-0.7,1.2-1.6,0.6-2.6c-0.3-0.6-0.9-1-1.4-1.5
				c-0.6-0.6-1.1-1.1-1.9-1.1c-0.9,0-1.4,0.7-2,1.3c-0.1,0.1-0.1-0.7-0.1-0.8c0-0.4,0-0.9-0.2-1.2c-0.5-0.8-1.3-0.9-2.1-0.9
				c-0.6,0-1.2,0-1.8,0c-1.1,0-1.8,0.9-1.8,2c0,0.1,0.1,0.8,0,0.9c-0.2,0.1-0.6-0.4-0.7-0.6c-0.7-0.7-1.9-0.9-2.7-0.1
				c-0.5,0.5-0.9,0.9-1.4,1.4c-0.6,0.6-1.1,1.4-0.7,2.3c0.1,0.4,0.4,0.6,0.7,0.9c0.1,0.1,0.7,0.6,0.3,0.6c-0.9,0-1.8-0.1-2.4,0.7
				c-0.5,0.6-0.4,1.4-0.4,2.1c0,0.6-0.1,1.5,0.1,2.1c0.4,1,1.3,1.1,2.3,1.1c0.2,0,0.6,0,0.4,0.2c-0.2,0.2-0.5,0.5-0.7,0.7
				c-0.7,0.8-0.5,1.9,0.2,2.6c0.5,0.5,1,1,1.5,1.5c0.8,0.8,1.9,0.8,2.7,0.1c0.2-0.2,0.5-0.5,0.7-0.7c0.2-0.2,0.1,0.7,0.1,0.7
				c0,1,0.4,1.9,1.5,2.1c0.6,0.1,1.3,0,2,0c0.8,0,1.6,0,2.1-0.7c0.3-0.4,0.4-0.8,0.4-1.2c0-0.2-0.1-0.8,0-1c0.2-0.1,0.5,0.4,0.7,0.5
				c0.4,0.4,0.8,0.7,1.3,0.7c0.9,0.1,1.5-0.6,2.1-1.2c0.5-0.5,1.1-0.9,1.4-1.5c0.5-1-0.1-1.8-0.8-2.5c-0.1-0.1-0.5-0.4-0.1-0.4
				c0.3,0,0.7,0,1,0c0.9-0.1,1.6-0.8,1.7-1.7c0-0.4,0-0.9,0-1.3c0-0.4,0-0.9,0-1.3C55.4,32,54.6,31.3,53.7,31.3z M54,35.5
				c0,0.5-1.5,0.3-1.8,0.3c-0.8,0-1,0.9-1.2,1.5c-0.3,0.7,0.6,1.2,1,1.6c0.2,0.2,0.5,0.4,0.3,0.7c-0.1,0.2-0.4,0.4-0.5,0.5
				c-0.3,0.3-0.5,0.5-0.8,0.8c-0.1,0.1-0.4,0.5-0.6,0.5c-0.2,0-0.5-0.4-0.6-0.5c-0.2-0.2-0.5-0.5-0.7-0.7c-0.2-0.2-0.6-0.3-0.9-0.1
				c-0.4,0.2-1,0.3-1.3,0.7c-0.3,0.4-0.1,1.3-0.1,1.8c0,0.2,0,0.5-0.3,0.5c-0.3,0-0.6,0-0.9,0c-0.3,0-1.8,0.2-1.8-0.3
				c-0.1-0.5,0-1.1,0-1.6c0-0.3-0.2-0.6-0.5-0.7c-0.4-0.2-1-0.6-1.5-0.5c-0.5,0.1-1.1,0.9-1.4,1.2c-0.4,0.4-1-0.4-1.3-0.7
				c-0.2-0.2-1.3-1-0.9-1.3c0.4-0.4,1-0.8,1.2-1.3c0.2-0.4-0.1-0.9-0.3-1.3c-0.1-0.4-0.2-0.7-0.7-0.8c-0.5-0.1-1.2,0-1.7,0
				c-0.5,0-0.3-1.3-0.3-1.6c0-0.4-0.2-1.4,0.4-1.4c0.5,0,1.2,0.1,1.7,0c0.4-0.2,0.5-0.6,0.6-1c0.2-0.4,0.5-0.9,0.1-1.3
				c-0.3-0.4-0.9-0.7-1.1-1.1c-0.3-0.3,0.9-1.2,1.1-1.4c0.2-0.2,0.4-0.4,0.6-0.6c0.2-0.2,0.4,0,0.6,0.1c0.4,0.4,0.8,1,1.4,1.2
				c0.4,0.1,1-0.3,1.4-0.5c0.3-0.1,0.5-0.4,0.5-0.7c0-0.3,0-0.5,0-0.8c0-0.3-0.1-0.7,0-0.9c0.1-0.2,0.4-0.2,0.6-0.2
				c0.4,0,0.8,0,1.2,0c0.3,0,0.5,0,0.8,0c0.4,0,0.3,0.4,0.3,0.6c0,0.5-0.2,1.4,0.2,1.8c0.3,0.3,0.9,0.4,1.3,0.6
				c0.3,0.2,0.7,0.1,0.9-0.2c0.2-0.2,0.4-0.4,0.7-0.7c0.1-0.1,0.4-0.5,0.6-0.5c0.2,0,0.3,0.2,0.5,0.3c0.3,0.3,0.5,0.5,0.8,0.8
				c0.3,0.3,1,0.7,0.5,1.1c-0.4,0.4-1,0.8-1.2,1.3c-0.2,0.4,0.1,0.7,0.2,1.1c0.2,0.4,0.2,0.8,0.6,1c0.5,0.2,1.1,0,1.6,0
				c0.2,0,0.5,0,0.5,0.3c0,0.2,0,0.5,0,0.7C54,34.3,54,34.9,54,35.5z"/>
		</g>
		<g>
			<g>
				<g>
					<path class="st2" d="M27.9,42.5c-2.1,0-3.8-1.7-3.8-3.8c0-2.1,1.7-3.8,3.8-3.8c2.1,0,3.8,1.7,3.8,3.8
						C31.8,40.8,30.1,42.5,27.9,42.5z M27.9,36.4c-1.3,0-2.3,1-2.3,2.3c0,1.3,1,2.3,2.3,2.3c1.3,0,2.3-1,2.3-2.3
						C30.3,37.4,29.2,36.4,27.9,36.4z"/>
				</g>
				<g>
					<path class="st2" d="M35.1,66c-1.2,0-2.2-0.9-2.4-2.1L32,59.1h-4.9c-1.3,0-2.4-1.1-2.4-2.4l0-0.6l0-10c0-1.7,1.4-3,3-3
						c0,0,0.1,0,0.1,0c0.2,0,2.2,0.1,2.8,1.5l2.7,2.7H38c1.1,0,2,0.9,2,2c0,1.1-0.9,2.1-2,2.1h-6.1c-0.2,0-0.4-0.1-0.5-0.2l-0.6-0.6
						v3.7h4.1c0.8,0,1.4,0.6,1.6,1.4l1,7.7c0.1,0.6-0.1,1.3-0.5,1.8c-0.4,0.5-0.9,0.8-1.6,0.9C35.3,66,35.2,66,35.1,66z M27.7,44.5
						c-0.8,0-1.5,0.7-1.5,1.5v10l0,0.6c0,0,0,0,0,0.1c0,0.5,0.4,0.9,0.9,0.9h5.6c0.4,0,0.7,0.3,0.8,0.7l0.8,5.5
						c0.1,0.5,0.5,0.8,1,0.7c0.3,0,0.5-0.2,0.6-0.3c0.1-0.2,0.2-0.4,0.2-0.6l-1-7.7c0,0,0,0,0,0H30c-0.4,0-0.8-0.3-0.8-0.8v-6.3
						c0-0.3,0.2-0.6,0.5-0.7c0.3-0.1,0.6-0.1,0.8,0.2l1.7,1.7H38c0.3,0,0.5-0.2,0.5-0.5c0-0.3-0.2-0.5-0.5-0.5h-5
						c-0.2,0-0.4-0.1-0.5-0.2l-3.1-3.1c-0.1-0.1-0.2-0.2-0.2-0.3C29.1,44.8,28.3,44.6,27.7,44.5z"/>
				</g>
			</g>
			<g>
				<g>
					<path class="st2" d="M62,42.5c-2.1,0-3.8-1.7-3.8-3.8c0-2.1,1.7-3.8,3.8-3.8c2.1,0,3.8,1.7,3.8,3.8
						C65.9,40.8,64.1,42.5,62,42.5z M62,36.4c-1.3,0-2.3,1-2.3,2.3c0,1.3,1,2.3,2.3,2.3c1.3,0,2.3-1,2.3-2.3
						C64.3,37.4,63.3,36.4,62,36.4z"/>
				</g>
				<g>
					<path class="st2" d="M54.9,66c-0.1,0-0.2,0-0.3,0c-1.3-0.2-2.2-1.4-2.1-2.7l1-7.7c0.1-0.8,0.8-1.4,1.6-1.4h4.1v-3.8l-0.6,0.6
						c-0.1,0.1-0.3,0.2-0.5,0.2H52c-1.1,0-2-0.9-2-2c0-1.2,0.9-2.1,2-2.1h4.7l2.7-2.7c0.6-1.4,2.8-1.4,2.8-1.4c1.7,0,3.1,1.4,3.1,3
						v10l0,0.7c0,1.3-1.1,2.4-2.4,2.4h-4.9l-0.7,4.9C57.1,65.1,56.1,66,54.9,66z M55.1,55.8C55.1,55.8,55.1,55.8,55.1,55.8L54,63.5
						c-0.1,0.5,0.3,0.9,0.7,1c0.1,0,0.1,0,0.1,0c0.4,0,0.8-0.3,0.8-0.7l0.8-5.5c0.1-0.4,0.4-0.7,0.8-0.7h5.6c0.5,0,0.9-0.4,0.9-0.9
						c0,0,0,0,0-0.1l0-0.6l0-9.9c0-0.8-0.7-1.5-1.5-1.5c-0.5,0-1.4,0.3-1.5,0.5c0,0.1-0.1,0.2-0.2,0.3l-3.1,3.1
						c-0.1,0.1-0.3,0.2-0.5,0.2h-5c-0.3,0-0.5,0.2-0.5,0.5c0,0.3,0.2,0.5,0.5,0.5h5.8l1.7-1.7c0.2-0.2,0.5-0.3,0.8-0.2
						c0.3,0.1,0.5,0.4,0.5,0.7V55c0,0.4-0.3,0.8-0.8,0.8H55.1z"/>
				</g>
			</g>
			<path class="st2" d="M52.8,52.3H37.7c-0.4,0-0.8,0.3-0.8,0.8s0.3,0.8,0.8,0.8h6.8v11.4c0,0.4,0.3,0.8,0.8,0.8s0.8-0.3,0.8-0.8
				V53.8h6.8c0.4,0,0.8-0.3,0.8-0.8S53.3,52.3,52.8,52.3z"/>
			<path class="st2" d="M67.6,52.8c-0.4-0.1-0.8,0.2-0.9,0.6l-0.8,4.6c-0.5,1-1.5,1.6-2.6,1.6H59c-0.4,0-0.8,0.3-0.8,0.8
				c0,0.4,0.3,0.8,0.8,0.8h2.8v4.1c0,0.4,0.3,0.8,0.8,0.8s0.8-0.3,0.8-0.8v-4.1h0c1.7,0,3.3-1,4-2.6c0-0.1,0-0.1,0.1-0.2l0.8-4.6
				C68.3,53.2,68,52.8,67.6,52.8z"/>
			<path class="st2" d="M31,59.6h-4.4c-1.1,0-2.1-0.6-2.6-1.6l-0.8-5.1c-0.1-0.4-0.5-0.7-0.9-0.6c-0.4,0.1-0.7,0.5-0.6,0.9l0.8,5.2
				c0,0.1,0,0.1,0.1,0.2c0.7,1.6,2.3,2.6,4,2.6h0v4.1c0,0.4,0.3,0.8,0.8,0.8s0.8-0.3,0.8-0.8v-4.1H31c0.4,0,0.8-0.3,0.8-0.8
				C31.8,59.9,31.5,59.6,31,59.6z"/>
		</g>
	</g>
</g>
<g id="_x30_3" class="st0">
	<g class="st1">
		<path class="st2" d="M35.3,57.4c-1-0.6-2.1-1.1-3.1-1.3c1.1-0.5,2.1-1.3,2.6-2.5c0.4-0.7,0.6-1.5,0.6-2.4c0-2.9-2.4-5.3-5.3-5.3
			c-2.9,0-5.3,2.4-5.3,5.3c0,0.8,0.2,1.6,0.6,2.4c0.6,1.1,1.5,2,2.6,2.5c-1,0.3-2,0.7-3.1,1.3c-2.7,1.6-4.2,4-4.8,7.5
			c-0.1,0.5,0.2,1,0.8,1.1c0.1,0,0.1,0,0.2,0c0.4,0,0.8-0.3,0.9-0.8c0.7-3.7,2.5-5.3,4-6.2c2.9-1.7,5.5-1.7,8.4,0
			c0.4,0.3,1,0.1,1.3-0.3C35.9,58.3,35.7,57.7,35.3,57.4z M27,52.8c-0.2-0.5-0.4-1-0.4-1.6c0-1.9,1.5-3.4,3.5-3.4
			c1.9,0,3.5,1.5,3.5,3.4c0,0.5-0.1,1.1-0.4,1.6c-0.6,1.2-1.8,1.9-3.1,1.9C28.8,54.7,27.6,54,27,52.8z"/>
		<path class="st2" d="M69.9,64.9c-0.6-3.5-2.1-5.8-4.8-7.5c-1-0.6-2-1.1-3.1-1.3c1.1-0.5,2.1-1.3,2.7-2.5c0.4-0.7,0.6-1.5,0.6-2.4
			c0-2.9-2.4-5.3-5.3-5.3c-2.9,0-5.3,2.4-5.3,5.3c0,0.8,0.2,1.6,0.6,2.4c0.6,1.1,1.5,2,2.6,2.5c-1,0.3-2.1,0.7-3.1,1.3
			c-0.4,0.3-0.6,0.8-0.3,1.3c0.3,0.4,0.8,0.6,1.3,0.3c2.9-1.7,5.5-1.7,8.4,0c1.5,0.9,3.3,2.4,4,6.2c0.1,0.4,0.5,0.8,0.9,0.8
			c0.1,0,0.1,0,0.2,0C69.6,65.9,70,65.4,69.9,64.9z M56.8,52.8c-0.2-0.5-0.4-1-0.4-1.6c0-1.9,1.6-3.4,3.5-3.4c1.9,0,3.4,1.5,3.4,3.4
			c0,0.5-0.1,1.1-0.4,1.6c-0.6,1.2-1.8,1.9-3.1,1.9C58.6,54.7,57.4,54,56.8,52.8z"/>
		<path class="st2" d="M55,64.9c-0.6-3.5-2.1-5.8-4.8-7.5c-1-0.6-2.1-1.1-3.1-1.3c1.1-0.5,2.1-1.3,2.6-2.5c0.4-0.7,0.6-1.5,0.6-2.4
			c0-2.9-2.4-5.3-5.3-5.3c-2.9,0-5.3,2.4-5.3,5.3c0,0.8,0.2,1.6,0.6,2.4c0.6,1.1,1.5,2,2.6,2.5c-1,0.3-2,0.7-3.1,1.3
			c-2.7,1.6-4.2,4-4.8,7.5c-0.1,0.5,0.2,1,0.8,1.1c0.1,0,0.1,0,0.2,0c0.4,0,0.8-0.3,0.9-0.8c0.7-3.7,2.5-5.3,4-6.2
			c2.9-1.7,5.5-1.7,8.4,0c1.5,0.9,3.3,2.4,4,6.2c0.1,0.5,0.6,0.8,1.1,0.8C54.8,65.9,55.1,65.4,55,64.9z M41.9,52.8
			c-0.2-0.5-0.4-1-0.4-1.6c0-1.9,1.5-3.4,3.5-3.4c1.9,0,3.5,1.5,3.5,3.4c0,0.5-0.1,1.1-0.4,1.6c-0.6,1.2-1.8,1.9-3.1,1.9
			C43.7,54.7,42.5,54,41.9,52.8z"/>
		<g>
			<path class="st2" d="M61.4,45c-0.5,0-0.9-0.4-0.9-0.9V26.2c0-0.2-0.1-0.3-0.3-0.3H29.8c-0.2,0-0.3,0.1-0.3,0.3v17.9
				c0,0.5-0.4,0.9-0.9,0.9c-0.5,0-0.9-0.4-0.9-0.9V26.2c0-1.2,1-2.2,2.2-2.2h30.3c1.2,0,2.2,1,2.2,2.2v17.9
				C62.3,44.6,61.9,45,61.4,45z"/>
		</g>
		<g>
			<path class="st2" d="M56.7,39.2h-7.3c-0.5,0-0.9-0.4-0.9-0.9s0.4-0.9,0.9-0.9h7.3c0.5,0,0.9,0.4,0.9,0.9S57.2,39.2,56.7,39.2z"/>
		</g>
		<g>
			<path class="st2" d="M56.7,33.2h-8.3c-0.5,0-0.9-0.4-0.9-0.9c0-0.5,0.4-0.9,0.9-0.9h8.3c0.5,0,0.9,0.4,0.9,0.9
				C57.6,32.8,57.2,33.2,56.7,33.2z"/>
		</g>
		<g>
			<path class="st2" d="M56.7,42.6h-9.8c-0.5,0-0.9-0.4-0.9-0.9c0-0.5,0.4-0.9,0.9-0.9h9.8c0.5,0,0.9,0.4,0.9,0.9
				C57.6,42.2,57.2,42.6,56.7,42.6z"/>
		</g>
		<g>
			<path class="st2" d="M56.7,36.2h-4.9c-0.5,0-0.9-0.4-0.9-0.9c0-0.5,0.4-0.9,0.9-0.9h4.9c0.5,0,0.9,0.4,0.9,0.9
				C57.6,35.8,57.2,36.2,56.7,36.2z"/>
		</g>
		<g>
			<path class="st2" d="M56.7,30.3h-4.9c-0.5,0-0.9-0.4-0.9-0.9c0-0.5,0.4-0.9,0.9-0.9h4.9c0.5,0,0.9,0.4,0.9,0.9
				C57.6,29.9,57.2,30.3,56.7,30.3z"/>
		</g>
		<path class="st2" d="M38.1,28.5c-3.5,0-6.3,2.8-6.3,6.3c0,3.5,2.8,6.3,6.3,6.3c3.5,0,6.3-2.8,6.3-6.3
			C44.4,31.4,41.5,28.5,38.1,28.5z M42.4,33.9H39v-3.4C40.7,30.9,42.1,32.2,42.4,33.9z M38.1,39.3c-2.5,0-4.5-2-4.5-4.5
			c0-2.1,1.5-3.9,3.5-4.4v4.4c0,0.5,0.4,0.9,0.9,0.9h4.4C42,37.8,40.2,39.3,38.1,39.3z"/>
	</g>
</g>
<g id="_x30_4" class="st0">
	<g class="st1">
		<path class="st2" d="M47.1,66c-0.1,0-0.2,0-0.3-0.1c-0.2-0.1-0.4-0.4-0.4-0.6v-6.1c0-2,1.7-3.7,3.7-3.7h10.7
			c0.3,0,0.6,0.2,0.7,0.5c0.1,0.3,0,0.6-0.3,0.8l-13.7,9.1C47.3,66,47.2,66,47.1,66z M50,56.9c-1.2,0-2.2,1-2.2,2.2v4.8l10.5-7H50z"
			/>
		<path class="st2" d="M54.6,33.2H35.1c-0.4,0-0.7-0.3-0.7-0.7v-3.2c0-0.4,0.3-0.7,0.7-0.7h19.5c0.4,0,0.7,0.3,0.7,0.7v3.2
			C55.3,32.9,55,33.2,54.6,33.2z M35.8,31.8h18v-1.7h-18V31.8z"/>
		<path class="st2" d="M47.8,37.2h-5.9c-0.4,0-0.7-0.3-0.7-0.7c0-0.4,0.3-0.7,0.7-0.7h5.9c0.4,0,0.7,0.3,0.7,0.7
			C48.5,36.9,48.2,37.2,47.8,37.2z"/>
		<path class="st2" d="M54.8,41.1H35.1c-0.4,0-0.7-0.3-0.7-0.7c0-0.4,0.3-0.7,0.7-0.7h19.7c0.4,0,0.7,0.3,0.7,0.7
			C55.5,40.8,55.2,41.1,54.8,41.1z"/>
		<path class="st2" d="M50.9,45.1H35.1c-0.4,0-0.7-0.3-0.7-0.7c0-0.4,0.3-0.7,0.7-0.7h15.8c0.4,0,0.7,0.3,0.7,0.7
			C51.6,44.8,51.3,45.1,50.9,45.1z"/>
		<path class="st2" d="M46.8,49H35.1c-0.4,0-0.7-0.3-0.7-0.7c0-0.4,0.3-0.7,0.7-0.7h11.7c0.4,0,0.7,0.3,0.7,0.7
			C47.5,48.7,47.2,49,46.8,49z"/>
		<path class="st2" d="M42.8,53h-7.7c-0.4,0-0.7-0.3-0.7-0.7c0-0.4,0.3-0.7,0.7-0.7h7.7c0.4,0,0.7,0.3,0.7,0.7
			C43.6,52.7,43.2,53,42.8,53z"/>
		<path class="st2" d="M43.9,58.2c-0.2,0-0.4-0.1-0.5-0.2l-3-3c-0.3-0.3-0.3-0.7,0-1l20.1-20.1c0.3-0.3,0.7-0.3,1,0l3,3
			c0.3,0.3,0.3,0.7,0,1l-6.9,6.9c-0.3,0.3-0.7,0.3-1,0c-0.3-0.3-0.3-0.7,0-1l6.4-6.4l-2-2L41.9,54.4l2,2l9.8-9.8
			c0.3-0.3,0.7-0.3,1,0c0.3,0.3,0.3,0.7,0,1L44.4,58C44.3,58.1,44.1,58.2,43.9,58.2z"/>
		<path class="st2" d="M64,38.1c-0.2,0-0.4-0.1-0.5-0.2l-3-3c-0.3-0.3-0.3-0.7,0-1l1.9-1.9c0.3-0.3,0.7-0.3,1,0l3,3
			c0.3,0.3,0.3,0.7,0,1l-1.9,1.9C64.4,38,64.2,38.1,64,38.1z M62,34.3l2,2l0.9-0.9l-2-2L62,34.3z"/>
		<path class="st2" d="M65.6,35.8c-0.2,0-0.4-0.1-0.5-0.2l-2.3-2.3c-0.3-0.3-0.3-0.7,0-1l1.1-1.1c0.4-0.4,1-0.6,1.6-0.6
			c0.6,0,1.2,0.3,1.6,0.7c0.4,0.4,0.7,1,0.7,1.6c0,0.6-0.2,1.2-0.6,1.6l-1.1,1.1C65.9,35.7,65.7,35.8,65.6,35.8z M64.3,32.8l1.3,1.3
			l0.6-0.6c0.1-0.1,0.2-0.3,0.2-0.5c0-0.2-0.1-0.5-0.3-0.6c-0.2-0.2-0.4-0.3-0.6-0.3c-0.2,0-0.4,0.1-0.5,0.2L64.3,32.8z"/>
		<path class="st2" d="M39.5,59.6c-0.2,0-0.4-0.1-0.5-0.2c-0.2-0.2-0.3-0.5-0.2-0.7l1.4-4.4c0.1-0.2,0.3-0.4,0.5-0.5
			c0.2-0.1,0.5,0,0.7,0.2l3,3c0.2,0.2,0.3,0.4,0.2,0.7c-0.1,0.2-0.2,0.4-0.5,0.5l-4.4,1.4C39.6,59.5,39.6,59.6,39.5,59.6z
			 M41.2,55.8l-0.6,1.9l1.9-0.6L41.2,55.8z"/>
		<path class="st2" d="M60,42.5v-1.8c0-0.4,0.3-0.7,0.7-0.7c0.4,0,0.7,0.3,0.7,0.7v15.5c0,0.2-0.1,0.5-0.3,0.6l-13.7,9.1
			C47.3,66,47.2,66,47.1,66H31.9c-2,0-3.7-1.7-3.7-3.7v-1.4c0-0.4,0.3-0.7,0.7-0.7c0.4,0,0.7,0.3,0.7,0.7v1.4c0,1.2,1,2.2,2.2,2.2
			h14.9L60,55.8V42.5"/>
		<path class="st2" d="M29,57c-0.4,0-0.7-0.3-0.7-0.7V27.7c0-2,1.7-3.7,3.7-3.7h25.8c2,0,3.7,1.7,3.7,3.7v3.2c0,0.4-0.3,0.7-0.7,0.7
			c-0.4,0-0.7-0.3-0.7-0.7v-3.2c0-1.2-1-2.2-2.2-2.2H31.9c-1.2,0-2.2,1-2.2,2.2v28.6C29.7,56.7,29.4,57,29,57z"/>
	</g>
</g>
<g id="_x30_5">
	<g id="flicker__x2C__icon_x2C__social__x2C__media">
		<g>
			<path class="st2" d="M59.8,30.1C56,26.4,50.8,24,45,24c-5.8,0-11,2.4-14.8,6.1C26.4,34,24,39.2,24,45c0,5.8,2.3,11,6.2,14.8
				C34,63.7,39.2,66,45,66c5.8,0,11-2.3,14.8-6.1C63.6,56,66,50.8,66,45C66,39.2,63.6,34,59.8,30.1z M58.7,58.7
				c-3.5,3.5-8.3,5.7-13.7,5.7c-5.3,0-10.2-2.2-13.7-5.7c-3.5-3.5-5.7-8.3-5.7-13.7c0-5.3,2.2-10.2,5.7-13.7
				c3.5-3.5,8.3-5.7,13.7-5.7c5.3,0,10.2,2.2,13.7,5.7c3.5,3.5,5.7,8.3,5.7,13.7C64.4,50.3,62.2,55.2,58.7,58.7z"/>
			<path class="st2" d="M39.2,40.4c-2.4,0-4.3,1.7-4.6,4c0,0.2-0.1,0.4-0.1,0.6c0,2.5,2.1,4.6,4.7,4.6c2.6,0,4.7-2,4.7-4.6
				c0-0.7-0.1-1.3-0.4-1.9C42.7,41.5,41,40.4,39.2,40.4z"/>
			<path class="st2" d="M50.8,40.4c-1.9,0-3.5,1.1-4.3,2.7c-0.2,0.6-0.4,1.2-0.4,1.9c0,2.5,2.1,4.6,4.7,4.6c2.6,0,4.6-2,4.6-4.6
				c0-0.1,0-0.2,0-0.4C55.3,42.3,53.3,40.4,50.8,40.4z"/>
		</g>
	</g>
	<g id="Layer_1">
	</g>
</g>
<g id="_x30_6" class="st0">
	<g class="st1">
		<path class="st2" d="M60.7,25.9H29.3c-5.7,0-10.3,4.7-10.3,10.4v17.5c0,5.7,4.6,10.4,10.3,10.4h31.3c5.7,0,10.3-4.7,10.3-10.4
			V36.3C71,30.6,66.4,25.9,60.7,25.9z M68.9,53.7c0,4.5-3.7,8.3-8.2,8.3H29.3c-4.5,0-8.2-3.7-8.2-8.3V36.3c0-4.5,3.7-8.3,8.2-8.3
			h31.3c4.5,0,8.2,3.7,8.2,8.3V53.7z"/>
		<path class="st2" d="M54.4,44.6L39.7,36c-0.3-0.2-0.7-0.2-1.1,0c-0.3,0.2-0.5,0.5-0.5,0.9v17.2c0,0.4,0.2,0.7,0.5,0.9
			c0.2,0.1,0.3,0.1,0.5,0.1c0.2,0,0.4,0,0.5-0.1l14.7-8.6c0.3-0.2,0.5-0.5,0.5-0.9C54.9,45.2,54.7,44.8,54.4,44.6z M40.2,52.3V38.8
			l11.5,6.8L40.2,52.3z"/>
	</g>
</g>
<g id="圖層_7" class="st0">
	<rect x="-29.8" y="-24.5" class="st1" width="15.6" height="15.6"/>
	<rect x="-10.3" y="-24.5" class="st3" width="15.6" height="15.6"/>
</g>
</svg>
