<?xml version="1.0" encoding="utf-8"?>
<!-- Generator: Adobe Illustrator 27.2.0, SVG Export Plug-In . SVG Version: 6.00 Build 0)  -->
<svg version="1.1" xmlns="http://www.w3.org/2000/svg" xmlns:xlink="http://www.w3.org/1999/xlink" x="0px" y="0px"
	 viewBox="0 0 90 90" style="enable-background:new 0 0 90 90;" xml:space="preserve">
<style type="text/css">
	.st0{display:none;}
	.st1{display:inline;}
	.st2{fill:#FFFFFF;}
</style>
<g id="_x30_1" class="st0">
	<g class="st1">
		<path class="st2" d="M27.8,49.7c-0.4,0-0.8-0.1-1.1-0.4c-0.6-0.5-0.9-1.3-0.6-2l0.5-1.7c-2.5-0.4-4.3-2.6-4.3-5.2V29.3
			c0-2.9,2.4-5.3,5.3-5.3h19.4c2.9,0,5.3,2.4,5.3,5.3v11.1c0,2.9-2.4,5.3-5.3,5.3H35l-6.2,3.8C28.5,49.6,28.2,49.7,27.8,49.7z
			 M27.5,25.4c-2.1,0-3.8,1.7-3.8,3.8v11.1c0,2.1,1.7,3.8,3.8,3.8c0.2,0,0.4,0.1,0.6,0.3c0.1,0.2,0.2,0.4,0.1,0.6l-0.8,2.6
			c-0.1,0.3,0.1,0.4,0.1,0.5c0.1,0.1,0.3,0.2,0.5,0l6.4-3.9c0.1-0.1,0.2-0.1,0.4-0.1h12c2.1,0,3.8-1.7,3.8-3.8V29.3
			c0-2.1-1.7-3.8-3.8-3.8H27.5z"/>
		<path class="st2" d="M62.2,66c-0.3,0-0.7-0.1-1-0.3L55,62H43.1c-2.9,0-5.3-2.4-5.3-5.3v-8.9c0-0.4,0.3-0.7,0.7-0.7
			c0.4,0,0.7,0.3,0.7,0.7v8.9c0,2.1,1.7,3.8,3.8,3.8h12c0.1,0,0.3,0,0.4,0.1l6.4,3.9c0.2,0.1,0.4,0,0.5,0c0.1-0.1,0.2-0.2,0.1-0.5
			l-0.8-2.6c-0.1-0.2,0-0.4,0.1-0.6c0.1-0.2,0.3-0.3,0.6-0.3c2.1,0,3.8-1.7,3.8-3.8V45.6c0-2.1-1.7-3.8-3.8-3.8h-8.2
			c-0.4,0-0.7-0.3-0.7-0.7c0-0.4,0.3-0.7,0.7-0.7h8.2c2.9,0,5.3,2.4,5.3,5.3v11.1c0,2.6-1.9,4.7-4.3,5.2l0.5,1.7
			c0.2,0.7,0,1.5-0.6,2C63,65.9,62.6,66,62.2,66z"/>
		<path class="st2" d="M37.4,38.4c-0.9,0-1.5,0.7-1.5,1.6c0,0.9,0.6,1.5,1.5,1.5c0.9,0,1.5-0.6,1.5-1.5
			C38.9,39.1,38.2,38.4,37.4,38.4z"/>
		<path class="st2" d="M37.6,28.4c-1,0-2.1,0.3-2.8,0.8c-0.2,0.1-0.2,0.3-0.2,0.5l0.4,1.1c0.1,0.1,0.2,0.2,0.3,0.3
			c0.1,0,0.3,0,0.4-0.1c0.4-0.3,1-0.5,1.5-0.5c0.8,0,1.2,0.4,1.2,1.1c0,0.6-0.3,1.1-1.1,2.1c-0.9,1.1-1.3,2.3-1.2,3.4l0,0.5
			c0,0.2,0.2,0.4,0.5,0.4h1.4c0.1,0,0.2-0.1,0.3-0.1c0.1-0.1,0.1-0.2,0.1-0.3l0-0.5c0-0.8,0.2-1.5,0.9-2.3c0.9-1.1,1.6-2,1.6-3.3
			C41,29.9,40,28.4,37.6,28.4z"/>
		<path class="st2" d="M52.2,54.3h1.1c0.3,0,0.5-0.2,0.5-0.5l0.2-7.9c0-0.1,0-0.3-0.1-0.4c-0.1-0.1-0.2-0.2-0.4-0.2H52
			c-0.1,0-0.3,0.1-0.4,0.2s-0.1,0.2-0.1,0.4l0.2,7.9C51.7,54.1,52,54.3,52.2,54.3z"/>
		<path class="st2" d="M52.8,54.6c-0.8,0-1.5,0.7-1.5,1.5s0.6,1.5,1.5,1.5c0.9,0,1.5-0.6,1.5-1.5C54.3,55.3,53.7,54.6,52.8,54.6z"/>
		<path class="st2" d="M66.2,66H49.9c-0.4,0-0.7-0.3-0.7-0.7c0-0.4,0.3-0.7,0.7-0.7h16.3c0.4,0,0.7,0.3,0.7,0.7
			C66.9,65.7,66.6,66,66.2,66z"/>
		<path class="st2" d="M33.4,49.7H23.4c-0.4,0-0.7-0.3-0.7-0.7c0-0.4,0.3-0.7,0.7-0.7h10.1c0.4,0,0.7,0.3,0.7,0.7
			C34.1,49.4,33.8,49.7,33.4,49.7z"/>
	</g>
</g>
<g id="_x30_2">
	<g>
		<g>
			<path class="st2" d="M45.2,29.4c-2.3,0-4.4,1.7-4.8,4c-0.4,2.3,0.9,4.6,3.1,5.4c2.2,0.8,4.7-0.2,5.9-2.2c1.1-2,0.6-4.7-1.2-6.1
				C47.4,29.8,46.3,29.4,45.2,29.4z M45.2,37.6c-1.8,0-3.3-1.5-3.3-3.3c0-1.8,1.5-3.3,3.3-3.3s3.3,1.5,3.3,3.3S47,37.6,45.2,37.6z"
				/>
			<path class="st2" d="M53.7,31.3c-0.3,0-0.6,0-0.9,0c-0.4,0,0-0.3,0.2-0.5c0.7-0.7,1.2-1.6,0.6-2.6c-0.3-0.6-0.9-1-1.4-1.5
				c-0.6-0.6-1.1-1.1-1.9-1.1c-0.9,0-1.4,0.7-2,1.3c-0.1,0.1-0.1-0.7-0.1-0.8c0-0.4,0-0.9-0.2-1.2c-0.5-0.8-1.3-0.9-2.1-0.9
				c-0.6,0-1.2,0-1.8,0c-1.1,0-1.8,0.9-1.8,2c0,0.1,0.1,0.8,0,0.9c-0.2,0.1-0.6-0.4-0.7-0.6c-0.7-0.7-1.9-0.9-2.7-0.1
				c-0.5,0.5-0.9,0.9-1.4,1.4c-0.6,0.6-1.1,1.4-0.7,2.3c0.1,0.4,0.4,0.6,0.7,0.9c0.1,0.1,0.7,0.6,0.3,0.6c-0.9,0-1.8-0.1-2.4,0.7
				c-0.5,0.6-0.4,1.4-0.4,2.1c0,0.6-0.1,1.5,0.1,2.1c0.4,1,1.3,1.1,2.3,1.1c0.2,0,0.6,0,0.4,0.2c-0.2,0.2-0.5,0.5-0.7,0.7
				c-0.7,0.8-0.5,1.9,0.2,2.6c0.5,0.5,1,1,1.5,1.5c0.8,0.8,1.9,0.8,2.7,0.1c0.2-0.2,0.5-0.5,0.7-0.7c0.2-0.2,0.1,0.7,0.1,0.7
				c0,1,0.4,1.9,1.5,2.1c0.6,0.1,1.3,0,2,0c0.8,0,1.6,0,2.1-0.7c0.3-0.4,0.4-0.8,0.4-1.2c0-0.2-0.1-0.8,0-1c0.2-0.1,0.5,0.4,0.7,0.5
				c0.4,0.4,0.8,0.7,1.3,0.7c0.9,0.1,1.5-0.6,2.1-1.2c0.5-0.5,1.1-0.9,1.4-1.5c0.5-1-0.1-1.8-0.8-2.5c-0.1-0.1-0.5-0.4-0.1-0.4
				c0.3,0,0.7,0,1,0c0.9-0.1,1.6-0.8,1.7-1.7c0-0.4,0-0.9,0-1.3c0-0.4,0-0.9,0-1.3C55.4,32,54.6,31.3,53.7,31.3z M54,35.5
				c0,0.5-1.5,0.3-1.8,0.3c-0.8,0-1,0.9-1.2,1.5c-0.3,0.7,0.6,1.2,1,1.6c0.2,0.2,0.5,0.4,0.3,0.7c-0.1,0.2-0.4,0.4-0.5,0.5
				c-0.3,0.3-0.5,0.5-0.8,0.8c-0.1,0.1-0.4,0.5-0.6,0.5c-0.2,0-0.5-0.4-0.6-0.5c-0.2-0.2-0.5-0.5-0.7-0.7c-0.2-0.2-0.6-0.3-0.9-0.1
				c-0.4,0.2-1,0.3-1.3,0.7c-0.3,0.4-0.1,1.3-0.1,1.8c0,0.2,0,0.5-0.3,0.5c-0.3,0-0.6,0-0.9,0c-0.3,0-1.8,0.2-1.8-0.3
				c-0.1-0.5,0-1.1,0-1.6c0-0.3-0.2-0.6-0.5-0.7c-0.4-0.2-1-0.6-1.5-0.5c-0.5,0.1-1.1,0.9-1.4,1.2c-0.4,0.4-1-0.4-1.3-0.7
				c-0.2-0.2-1.3-1-0.9-1.3c0.4-0.4,1-0.8,1.2-1.3c0.2-0.4-0.1-0.9-0.3-1.3c-0.1-0.4-0.2-0.7-0.7-0.8c-0.5-0.1-1.2,0-1.7,0
				c-0.5,0-0.3-1.3-0.3-1.6c0-0.4-0.2-1.4,0.4-1.4c0.5,0,1.2,0.1,1.7,0c0.4-0.2,0.5-0.6,0.6-1c0.2-0.4,0.5-0.9,0.1-1.3
				c-0.3-0.4-0.9-0.7-1.1-1.1c-0.3-0.3,0.9-1.2,1.1-1.4c0.2-0.2,0.4-0.4,0.6-0.6c0.2-0.2,0.4,0,0.6,0.1c0.4,0.4,0.8,1,1.4,1.2
				c0.4,0.1,1-0.3,1.4-0.5c0.3-0.1,0.5-0.4,0.5-0.7c0-0.3,0-0.5,0-0.8c0-0.3-0.1-0.7,0-0.9c0.1-0.2,0.4-0.2,0.6-0.2
				c0.4,0,0.8,0,1.2,0c0.3,0,0.5,0,0.8,0c0.4,0,0.3,0.4,0.3,0.6c0,0.5-0.2,1.4,0.2,1.8c0.3,0.3,0.9,0.4,1.3,0.6
				c0.3,0.2,0.7,0.1,0.9-0.2c0.2-0.2,0.4-0.4,0.7-0.7c0.1-0.1,0.4-0.5,0.6-0.5c0.2,0,0.3,0.2,0.5,0.3c0.3,0.3,0.5,0.5,0.8,0.8
				c0.3,0.3,1,0.7,0.5,1.1c-0.4,0.4-1,0.8-1.2,1.3c-0.2,0.4,0.1,0.7,0.2,1.1c0.2,0.4,0.2,0.8,0.6,1c0.5,0.2,1.1,0,1.6,0
				c0.2,0,0.5,0,0.5,0.3c0,0.2,0,0.5,0,0.7C54,34.3,54,34.9,54,35.5z"/>
		</g>
		<g>
			<g>
				<g>
					<path class="st2" d="M27.9,42.5c-2.1,0-3.8-1.7-3.8-3.8c0-2.1,1.7-3.8,3.8-3.8c2.1,0,3.8,1.7,3.8,3.8
						C31.8,40.8,30.1,42.5,27.9,42.5z M27.9,36.4c-1.3,0-2.3,1-2.3,2.3c0,1.3,1,2.3,2.3,2.3c1.3,0,2.3-1,2.3-2.3
						C30.3,37.4,29.2,36.4,27.9,36.4z"/>
				</g>
				<g>
					<path class="st2" d="M35.1,66c-1.2,0-2.2-0.9-2.4-2.1L32,59.1h-4.9c-1.3,0-2.4-1.1-2.4-2.4l0-0.6l0-10c0-1.7,1.4-3,3-3
						c0,0,0.1,0,0.1,0c0.2,0,2.2,0.1,2.8,1.5l2.7,2.7H38c1.1,0,2,0.9,2,2c0,1.1-0.9,2.1-2,2.1h-6.1c-0.2,0-0.4-0.1-0.5-0.2l-0.6-0.6
						v3.7h4.1c0.8,0,1.4,0.6,1.6,1.4l1,7.7c0.1,0.6-0.1,1.3-0.5,1.8c-0.4,0.5-0.9,0.8-1.6,0.9C35.3,66,35.2,66,35.1,66z M27.7,44.5
						c-0.8,0-1.5,0.7-1.5,1.5v10l0,0.6c0,0,0,0,0,0.1c0,0.5,0.4,0.9,0.9,0.9h5.6c0.4,0,0.7,0.3,0.8,0.7l0.8,5.5
						c0.1,0.5,0.5,0.8,1,0.7c0.3,0,0.5-0.2,0.6-0.3c0.1-0.2,0.2-0.4,0.2-0.6l-1-7.7c0,0,0,0,0,0H30c-0.4,0-0.8-0.3-0.8-0.8v-6.3
						c0-0.3,0.2-0.6,0.5-0.7c0.3-0.1,0.6-0.1,0.8,0.2l1.7,1.7H38c0.3,0,0.5-0.2,0.5-0.5c0-0.3-0.2-0.5-0.5-0.5h-5
						c-0.2,0-0.4-0.1-0.5-0.2l-3.1-3.1c-0.1-0.1-0.2-0.2-0.2-0.3C29.1,44.8,28.3,44.6,27.7,44.5z"/>
				</g>
			</g>
			<g>
				<g>
					<path class="st2" d="M62,42.5c-2.1,0-3.8-1.7-3.8-3.8c0-2.1,1.7-3.8,3.8-3.8c2.1,0,3.8,1.7,3.8,3.8
						C65.9,40.8,64.1,42.5,62,42.5z M62,36.4c-1.3,0-2.3,1-2.3,2.3c0,1.3,1,2.3,2.3,2.3c1.3,0,2.3-1,2.3-2.3
						C64.3,37.4,63.3,36.4,62,36.4z"/>
				</g>
				<g>
					<path class="st2" d="M54.9,66c-0.1,0-0.2,0-0.3,0c-1.3-0.2-2.2-1.4-2.1-2.7l1-7.7c0.1-0.8,0.8-1.4,1.6-1.4h4.1v-3.8l-0.6,0.6
						c-0.1,0.1-0.3,0.2-0.5,0.2H52c-1.1,0-2-0.9-2-2c0-1.2,0.9-2.1,2-2.1h4.7l2.7-2.7c0.6-1.4,2.8-1.4,2.8-1.4c1.7,0,3.1,1.4,3.1,3
						v10l0,0.7c0,1.3-1.1,2.4-2.4,2.4h-4.9l-0.7,4.9C57.1,65.1,56.1,66,54.9,66z M55.1,55.8C55.1,55.8,55.1,55.8,55.1,55.8L54,63.5
						c-0.1,0.5,0.3,0.9,0.7,1c0.1,0,0.1,0,0.1,0c0.4,0,0.8-0.3,0.8-0.7l0.8-5.5c0.1-0.4,0.4-0.7,0.8-0.7h5.6c0.5,0,0.9-0.4,0.9-0.9
						c0,0,0,0,0-0.1l0-0.6l0-9.9c0-0.8-0.7-1.5-1.5-1.5c-0.5,0-1.4,0.3-1.5,0.5c0,0.1-0.1,0.2-0.2,0.3l-3.1,3.1
						c-0.1,0.1-0.3,0.2-0.5,0.2h-5c-0.3,0-0.5,0.2-0.5,0.5c0,0.3,0.2,0.5,0.5,0.5h5.8l1.7-1.7c0.2-0.2,0.5-0.3,0.8-0.2
						c0.3,0.1,0.5,0.4,0.5,0.7V55c0,0.4-0.3,0.8-0.8,0.8H55.1z"/>
				</g>
			</g>
			<path class="st2" d="M52.8,52.3H37.7c-0.4,0-0.8,0.3-0.8,0.8s0.3,0.8,0.8,0.8h6.8v11.4c0,0.4,0.3,0.8,0.8,0.8s0.8-0.3,0.8-0.8
				V53.8h6.8c0.4,0,0.8-0.3,0.8-0.8S53.3,52.3,52.8,52.3z"/>
			<path class="st2" d="M67.6,52.8c-0.4-0.1-0.8,0.2-0.9,0.6l-0.8,4.6c-0.5,1-1.5,1.6-2.6,1.6H59c-0.4,0-0.8,0.3-0.8,0.8
				c0,0.4,0.3,0.8,0.8,0.8h2.8v4.1c0,0.4,0.3,0.8,0.8,0.8s0.8-0.3,0.8-0.8v-4.1h0c1.7,0,3.3-1,4-2.6c0-0.1,0-0.1,0.1-0.2l0.8-4.6
				C68.3,53.2,68,52.8,67.6,52.8z"/>
			<path class="st2" d="M31,59.6h-4.4c-1.1,0-2.1-0.6-2.6-1.6l-0.8-5.1c-0.1-0.4-0.5-0.7-0.9-0.6c-0.4,0.1-0.7,0.5-0.6,0.9l0.8,5.2
				c0,0.1,0,0.1,0.1,0.2c0.7,1.6,2.3,2.6,4,2.6h0v4.1c0,0.4,0.3,0.8,0.8,0.8s0.8-0.3,0.8-0.8v-4.1H31c0.4,0,0.8-0.3,0.8-0.8
				C31.8,59.9,31.5,59.6,31,59.6z"/>
		</g>
	</g>
</g>
<g id="_x30_3" class="st0">
	<g class="st1">
		<path d="M30.7,63.4c-1.5-0.9-3-1.6-4.6-1.9c1.7-0.7,3.1-2,3.9-3.7c0.6-1.1,0.8-2.3,0.8-3.5c0-4.3-3.5-7.8-7.8-7.8
			c-4.3,0-7.8,3.5-7.8,7.8c0,1.2,0.3,2.4,0.8,3.5c0.8,1.7,2.2,3,3.9,3.7c-1.5,0.4-3,1-4.5,1.9c-4,2.4-6.3,5.9-7.1,11
			c-0.1,0.7,0.4,1.5,1.1,1.6c0.1,0,0.2,0,0.2,0c0.7,0,1.2-0.5,1.3-1.1c1-5.5,3.6-7.8,5.9-9.1c4.2-2.6,8.2-2.6,12.4,0
			c0.6,0.4,1.5,0.2,1.9-0.5C31.5,64.6,31.3,63.8,30.7,63.4z M18.5,56.5c-0.4-0.7-0.5-1.5-0.5-2.3c0-2.8,2.3-5.1,5.1-5.1
			c2.8,0,5.1,2.3,5.1,5.1c0,0.8-0.2,1.6-0.5,2.3c-0.9,1.7-2.6,2.8-4.6,2.8C21.1,59.3,19.3,58.3,18.5,56.5z"/>
		<path d="M81.7,74.4c-0.9-5.1-3.2-8.6-7.2-11c-1.5-0.9-3-1.6-4.5-1.9c1.7-0.7,3.1-2,3.9-3.7c0.6-1.1,0.8-2.3,0.8-3.5
			c0-4.3-3.5-7.8-7.8-7.8c-4.3,0-7.8,3.5-7.8,7.8c0,1.2,0.3,2.4,0.8,3.5c0.8,1.7,2.2,3,3.9,3.7c-1.5,0.4-3,1-4.5,1.9
			c-0.6,0.4-0.9,1.2-0.5,1.9c0.4,0.6,1.2,0.9,1.9,0.5c4.2-2.6,8.2-2.6,12.4,0c2.2,1.4,4.9,3.6,5.9,9.1c0.1,0.7,0.7,1.1,1.3,1.1
			c0.1,0,0.2,0,0.2,0C81.4,75.8,81.9,75.1,81.7,74.4z M62.4,56.5c-0.4-0.7-0.5-1.5-0.5-2.3c0-2.8,2.3-5.1,5.1-5.1
			c2.8,0,5.1,2.3,5.1,5.1c0,0.8-0.2,1.6-0.5,2.3c-0.9,1.7-2.6,2.8-4.5,2.8C65,59.3,63.3,58.3,62.4,56.5z"/>
		<path d="M59.8,74.4c-0.9-5.1-3.2-8.6-7.2-11c-1.5-0.9-3-1.6-4.5-1.9c1.7-0.7,3.1-2,3.9-3.7c0.6-1.1,0.8-2.3,0.8-3.5
			c0-4.3-3.5-7.8-7.8-7.8c-4.3,0-7.8,3.5-7.8,7.8c0,1.2,0.3,2.4,0.8,3.5c0.8,1.7,2.2,3,3.9,3.7c-1.5,0.4-3,1-4.5,1.9
			c-4,2.4-6.3,5.9-7.2,11c-0.1,0.7,0.4,1.5,1.1,1.6c0.1,0,0.2,0,0.2,0c0.7,0,1.2-0.5,1.3-1.1c1-5.5,3.7-7.8,5.9-9.1
			c4.2-2.6,8.2-2.6,12.4,0c2.2,1.4,4.9,3.6,5.9,9.1c0.1,0.7,0.8,1.2,1.6,1.1C59.4,75.8,59.9,75.1,59.8,74.4z M40.4,56.5
			c-0.4-0.7-0.5-1.5-0.5-2.3c0-2.8,2.3-5.1,5.1-5.1c2.8,0,5.1,2.3,5.1,5.1c0,0.8-0.2,1.6-0.5,2.3c-0.9,1.7-2.6,2.8-4.6,2.8
			C43.1,59.3,41.3,58.3,40.4,56.5z"/>
		<g>
			<path d="M69.2,45c-0.8,0-1.4-0.6-1.4-1.4V17.2c0-0.2-0.2-0.4-0.4-0.4H22.6c-0.2,0-0.4,0.2-0.4,0.4v26.4c0,0.8-0.6,1.4-1.4,1.4
				c-0.8,0-1.4-0.6-1.4-1.4V17.2c0-1.8,1.4-3.2,3.2-3.2h44.7c1.8,0,3.2,1.4,3.2,3.2v26.4C70.5,44.4,69.9,45,69.2,45z"/>
		</g>
		<g>
			<path d="M62.3,36.5H51.5c-0.8,0-1.4-0.6-1.4-1.4s0.6-1.4,1.4-1.4h10.8c0.8,0,1.4,0.6,1.4,1.4S63.1,36.5,62.3,36.5z"/>
		</g>
		<g>
			<path d="M62.3,27.6H50c-0.8,0-1.4-0.6-1.4-1.4c0-0.8,0.6-1.4,1.4-1.4h12.3c0.8,0,1.4,0.6,1.4,1.4C63.7,27,63.1,27.6,62.3,27.6z"
				/>
		</g>
		<g>
			<path d="M62.3,41.5H47.9c-0.8,0-1.4-0.6-1.4-1.4c0-0.8,0.6-1.4,1.4-1.4h14.4c0.8,0,1.4,0.6,1.4,1.4
				C63.7,40.9,63.1,41.5,62.3,41.5z"/>
		</g>
		<g>
			<path d="M62.3,32h-7.2c-0.8,0-1.4-0.6-1.4-1.4s0.6-1.4,1.4-1.4h7.2c0.8,0,1.4,0.6,1.4,1.4S63.1,32,62.3,32z"/>
		</g>
		<g>
			<path d="M62.3,23.3h-7.2c-0.8,0-1.4-0.6-1.4-1.4s0.6-1.4,1.4-1.4h7.2c0.8,0,1.4,0.6,1.4,1.4S63.1,23.3,62.3,23.3z"/>
		</g>
		<path d="M34.8,20.7c-5.1,0-9.3,4.2-9.3,9.3c0,5.1,4.2,9.3,9.3,9.3c5.1,0,9.3-4.2,9.3-9.3C44.1,24.9,39.9,20.7,34.8,20.7z
			 M41.2,28.7h-5.1v-5.1C38.7,24.1,40.7,26.1,41.2,28.7z M34.8,36.6c-3.6,0-6.6-3-6.6-6.6c0-3.2,2.2-5.8,5.2-6.4V30
			c0,0.8,0.6,1.4,1.4,1.4h6.4C40.6,34.4,37.9,36.6,34.8,36.6z"/>
	</g>
</g>
<g id="_x30_4" class="st0">
	<g class="st1">
		<path d="M46.5,78c-0.2,0-0.4,0-0.5-0.1c-0.4-0.2-0.6-0.6-0.6-1v-9.6c0-3.2,2.6-5.8,5.8-5.8h16.8c0.5,0,0.9,0.3,1.1,0.8
			c0.1,0.5,0,1-0.5,1.3L47.1,77.8C47,77.9,46.7,78,46.5,78z M51.2,63.7c-1.9,0-3.5,1.6-3.5,3.5v7.5l16.5-11H51.2z"/>
		<path d="M58.3,26.5H27.7c-0.6,0-1.1-0.5-1.1-1.1v-4.9c0-0.6,0.5-1.1,1.1-1.1h30.6c0.6,0,1.1,0.5,1.1,1.1v4.9
			C59.5,26,59,26.5,58.3,26.5z M28.9,24.3h28.3v-2.7H28.9V24.3z"/>
		<path d="M47.7,32.7h-9.3c-0.6,0-1.1-0.5-1.1-1.1c0-0.6,0.5-1.1,1.1-1.1h9.3c0.6,0,1.1,0.5,1.1,1.1C48.8,32.2,48.3,32.7,47.7,32.7z
			"/>
		<path d="M58.6,38.9H27.7c-0.6,0-1.1-0.5-1.1-1.1c0-0.6,0.5-1.1,1.1-1.1h30.9c0.6,0,1.1,0.5,1.1,1.1C59.7,38.4,59.2,38.9,58.6,38.9
			z"/>
		<path d="M52.6,45.1H27.7c-0.6,0-1.1-0.5-1.1-1.1c0-0.6,0.5-1.1,1.1-1.1h24.8c0.6,0,1.1,0.5,1.1,1.1C53.7,44.6,53.2,45.1,52.6,45.1
			z"/>
		<path d="M46.1,51.4H27.7c-0.6,0-1.1-0.5-1.1-1.1c0-0.6,0.5-1.1,1.1-1.1h18.3c0.6,0,1.1,0.5,1.1,1.1C47.2,50.8,46.7,51.4,46.1,51.4
			z"/>
		<path d="M39.9,57.6H27.7c-0.6,0-1.1-0.5-1.1-1.1c0-0.6,0.5-1.1,1.1-1.1h12.2c0.6,0,1.1,0.5,1.1,1.1C41,57,40.5,57.6,39.9,57.6z"/>
		<path d="M41.6,65.7c-0.3,0-0.6-0.1-0.8-0.3L36,60.6c-0.4-0.4-0.4-1.2,0-1.6l31.6-31.6c0.4-0.4,1.2-0.4,1.6,0l4.8,4.8
			c0.4,0.4,0.4,1.2,0,1.6L63.1,44.6c-0.4,0.4-1.2,0.4-1.6,0c-0.4-0.4-0.4-1.2,0-1.6l10-10l-3.1-3.1L38.4,59.8l3.1,3.1l15.4-15.4
			c0.4-0.4,1.2-0.4,1.6,0c0.4,0.4,0.4,1.2,0,1.6L42.4,65.3C42.2,65.5,41.9,65.7,41.6,65.7z"/>
		<path d="M73.1,34.1c-0.3,0-0.6-0.1-0.8-0.3L67.6,29c-0.4-0.4-0.4-1.2,0-1.6l3-3c0.4-0.4,1.2-0.4,1.6,0l4.8,4.8
			c0.4,0.4,0.4,1.2,0,1.6l-3,3C73.7,34,73.4,34.1,73.1,34.1z M70,28.2l3.1,3.1l1.4-1.4l-3.1-3.1L70,28.2z"/>
		<path d="M75.6,30.5c-0.3,0-0.6-0.1-0.8-0.3l-3.6-3.6c-0.4-0.4-0.4-1.2,0-1.6l1.7-1.7c0.7-0.7,1.6-1,2.5-1c0.9,0,1.8,0.4,2.5,1.1
			C78.6,24.1,79,25,79,26c0,1-0.3,1.9-1,2.5l-1.7,1.7C76.1,30.4,75.8,30.5,75.6,30.5z M73.6,25.8l2,2l0.9-0.9
			c0.2-0.2,0.3-0.5,0.3-0.8c0-0.4-0.2-0.7-0.5-1c-0.3-0.3-0.6-0.4-1-0.5c-0.3,0-0.6,0.1-0.8,0.3L73.6,25.8z"/>
		<path d="M34.6,67.8c-0.3,0-0.6-0.1-0.8-0.3c-0.3-0.3-0.4-0.7-0.3-1.2l2.2-6.9c0.1-0.4,0.4-0.7,0.8-0.8c0.4-0.1,0.8,0,1.1,0.3
			l4.8,4.8c0.3,0.3,0.4,0.7,0.3,1.1c-0.1,0.4-0.4,0.7-0.8,0.8L35,67.8C34.9,67.8,34.7,67.8,34.6,67.8z M37.3,61.9l-1,3l3-1
			L37.3,61.9z"/>
		<path d="M46.5,78H22.8c-3.2,0-5.8-2.6-5.8-5.8v-2.3c0-0.6,0.5-1.1,1.1-1.1c0.6,0,1.1,0.5,1.1,1.1v2.3c0,1.9,1.6,3.5,3.5,3.5h23.4
			l20.6-13.8V38.1c0-0.6,0.5-1.1,1.1-1.1c0.6,0,1.1,0.5,1.1,1.1v24.4c0,0.4-0.2,0.7-0.5,1L47.1,77.8C47,77.9,46.7,78,46.5,78z"/>
		<path d="M18.1,63.8c-0.6,0-1.1-0.5-1.1-1.1V17.8c0-3.2,2.6-5.8,5.8-5.8h40.5c3.2,0,5.8,2.6,5.8,5.8v5.1c0,0.6-0.5,1.1-1.1,1.1
			c-0.6,0-1.1-0.5-1.1-1.1v-5.1c0-1.9-1.6-3.5-3.5-3.5H22.8c-1.9,0-3.5,1.6-3.5,3.5v44.8C19.3,63.3,18.8,63.8,18.1,63.8z"/>
	</g>
</g>
<g id="_x30_5" class="st0">
	<g id="flicker__x2C__icon_x2C__social__x2C__media" class="st1">
		<g>
			<path d="M66.9,23.1C61.3,17.5,53.6,14,45,14c-8.6,0-16.3,3.5-21.9,9.1C17.5,28.7,14,36.4,14,45c0,8.5,3.5,16.3,9.1,21.9
				C28.7,72.5,36.4,76,45,76c8.6,0,16.3-3.5,21.9-9.1C72.5,61.3,76,53.6,76,45C76,36.4,72.5,28.7,66.9,23.1z M65.2,65.2
				C60,70.4,52.9,73.6,45,73.6c-7.9,0-15-3.2-20.2-8.4C19.6,60,16.4,52.9,16.4,45c0-7.9,3.2-15,8.4-20.2c5.2-5.2,12.3-8.4,20.2-8.4
				c7.9,0,15,3.2,20.2,8.4c5.2,5.2,8.4,12.3,8.4,20.2C73.6,52.9,70.4,60,65.2,65.2z"/>
			<path d="M36.4,38.2c-3.5,0-6.3,2.5-6.8,5.9c-0.1,0.3-0.1,0.6-0.1,0.9c0,3.7,3.1,6.8,6.9,6.8c3.8,0,6.9-3,6.9-6.8
				c0-1-0.2-2-0.6-2.8C41.5,39.8,39.1,38.2,36.4,38.2z"/>
			<path d="M53.6,38.2c-2.8,0-5.2,1.6-6.3,4C47,43.1,46.8,44,46.8,45c0,3.7,3.1,6.8,6.9,6.8c3.8,0,6.9-3,6.9-6.8c0-0.2,0-0.4,0-0.6
				C60.2,41,57.2,38.2,53.6,38.2z"/>
		</g>
	</g>
	<g id="Layer_1" class="st1">
	</g>
</g>
<g id="_x30_6" class="st0">
	<g class="st1">
		<path d="M63.7,22.2H26.3c-6.8,0-12.3,5.5-12.3,12.4v20.8c0,6.8,5.5,12.4,12.3,12.4h37.3c6.8,0,12.3-5.5,12.3-12.4V34.6
			C76,27.8,70.5,22.2,63.7,22.2z M73.5,55.4c0,5.4-4.4,9.8-9.8,9.8H26.3c-5.4,0-9.8-4.4-9.8-9.8V34.6c0-5.4,4.4-9.8,9.8-9.8h37.3
			c5.4,0,9.8,4.4,9.8,9.8V55.4z"/>
		<path d="M56.2,44.5L38.7,34.3c-0.4-0.2-0.9-0.2-1.3,0c-0.4,0.2-0.6,0.6-0.6,1.1v20.5c0,0.5,0.2,0.9,0.6,1.1
			c0.2,0.1,0.4,0.2,0.6,0.2c0.2,0,0.4-0.1,0.6-0.2l17.5-10.3c0.4-0.2,0.6-0.6,0.6-1.1C56.8,45.2,56.6,44.8,56.2,44.5z M39.3,53.7
			V37.6l13.8,8.1L39.3,53.7z"/>
	</g>
</g>
<g id="圖層_7">
	<rect x="-29.8" y="-24.5" width="15.6" height="15.6"/>
	<rect x="-10.3" y="-24.5" class="st2" width="15.6" height="15.6"/>
</g>
</svg>
