<?xml version="1.0" encoding="utf-8"?>
<!-- Generator: Adobe Illustrator 27.2.0, SVG Export Plug-In . SVG Version: 6.00 Build 0)  -->
<svg version="1.1" id="圖層_1" xmlns="http://www.w3.org/2000/svg" xmlns:xlink="http://www.w3.org/1999/xlink" x="0px" y="0px"
	 viewBox="0 0 38 38" style="enable-background:new 0 0 38 38;" xml:space="preserve">
<path d="M35.2,7.7c-0.5-0.5-1.2-0.8-1.9-0.8L4.7,6.9c0,0,0,0,0,0C4,6.9,3.3,7.2,2.8,7.7C2.3,8.2,2,8.8,2,9.6l0,18.8
	c0,0.7,0.3,1.4,0.8,1.9c0,0,0,0,0,0c0,0,0,0,0,0c0.5,0.5,1.2,0.8,1.9,0.8l28.6,0.1h0c0.7,0,1.4-0.3,1.9-0.8c0.5-0.5,0.8-1.2,0.8-1.9
	l0-18.8C36,8.9,35.7,8.2,35.2,7.7z M14.1,18.6L3.9,27.9l0-18L14.1,18.6z M23.9,18.7L34.1,10l0,18L23.9,18.7z M19.1,20.4L5.6,8.8
	l26.9,0.1L19.1,20.4z M15.6,19.9l2.9,2.5c0.2,0.1,0.4,0.2,0.6,0.2c0.2,0,0.4-0.1,0.6-0.2l2.7-2.4l10.1,9.2L5.4,29.2L15.6,19.9z"/>
</svg>
