<?xml version="1.0" encoding="utf-8"?>
<!-- Generator: Adobe Illustrator 27.2.0, SVG Export Plug-In . SVG Version: 6.00 Build 0)  -->
<svg version="1.1" id="圖層_1" xmlns="http://www.w3.org/2000/svg" xmlns:xlink="http://www.w3.org/1999/xlink" x="0px" y="0px"
	 viewBox="0 0 283.5 283.5" style="enable-background:new 0 0 283.5 283.5;" xml:space="preserve">
<style type="text/css">
	.st0{fill:#CACACC;}
	.st1{fill:#CACACC;stroke:#FFFFFF;}
	.st2{fill:#CACACC;stroke:#FFFFFF;stroke-width:0.25;}
	.st3{fill:#B31D27;}
	.st4{fill:#4A4A4A;}
	.st5{fill:#FFFFFF;}
	.st6{font-family:'JCHEadA';}
	.st7{font-size:29.97px;}
</style>
<g>
	<g>
		<g>
			<path class="st0" d="M145,239l-1,1.7c0,0-0.4,0.8,0.2,1.2c0,0,0.4,0,1-0.8c0,0,1.9-1.5,1.2-1.7C146.5,239.5,146.3,238.4,145,239z
				"/>
			<path class="st0" d="M144.2,242.2L144.2,242.2l-0.1,0c-0.6-0.4-0.4-1.2-0.3-1.5l1.1-1.7l0.1,0c0.3-0.1,0.6-0.2,0.8-0.2
				c0.6,0,0.8,0.4,0.9,0.7c0.1,0.1,0.1,0.2,0.2,0.2c0.1,0.5-0.8,1.3-1.4,1.7C144.7,242.1,144.3,242.2,144.2,242.2z M145.2,239.2
				l-1,1.6c0,0-0.3,0.6,0.1,0.9c0.1,0,0.4-0.2,0.8-0.7l0,0c0.7-0.5,1.2-1.1,1.3-1.3l-0.1,0l0-0.1c0,0-0.1-0.4-0.5-0.4
				C145.6,239.1,145.4,239.1,145.2,239.2z"/>
		</g>
		<g>
			<path class="st0" d="M230,215l-1.4-1c0,0-1.3-0.1-2,0.3l0.7,1l0.3,1.3l0.7,1l0.5-0.8C228.8,216.8,230.8,216.2,230,215z"/>
			<path class="st0" d="M226.3,214.3l0.2-0.1c0.7-0.5,2.1-0.4,2.1-0.4l0.1,0l1.5,1.1l0,0c0.4,0.6,0.2,1.2-0.5,1.7
				c-0.3,0.2-0.7,0.3-0.8,0.4l-0.6,1l-0.9-1.3l-0.3-1.3L226.3,214.3z M228.5,214.2c-0.2,0-1.1,0-1.6,0.2l0.6,0.9l0.3,1.3l0.5,0.7
				l0.3-0.6l0.1,0c0,0,0.4-0.1,0.8-0.4c0.7-0.5,0.6-0.9,0.4-1.1L228.5,214.2z"/>
		</g>
		<g>
			<path class="st0" d="M204.4,25.5c0.2-0.4,0.5-0.7,0.8-1C204.9,24.8,204.6,25.1,204.4,25.5z"/>
			<path class="st0" d="M207.8,23.8c0,0-1.4-0.4-2.6,0.8C206.3,23.7,207.8,23.8,207.8,23.8z"/>
			<path class="st0" d="M211.2,22.8c-0.4-0.1-0.9-0.1-1.7,0l0,0C210.1,22.8,210.7,22.8,211.2,22.8z"/>
			<path class="st0" d="M218.9,63.5c0,0,0.1,0,0.1,0C219,63.5,219,63.5,218.9,63.5z"/>
			<path class="st0" d="M219,63.5c0,0,0.1,0,0.1,0C219.1,63.5,219.1,63.5,219,63.5z"/>
			<path class="st0" d="M218.7,63.4L218.7,63.4c0,0,0.1,0,0.1,0C218.8,63.4,218.7,63.4,218.7,63.4z"/>
			<path class="st0" d="M218.8,63.4c0,0,0.1,0,0.1,0C218.9,63.5,218.8,63.5,218.8,63.4z"/>
			<path class="st0" d="M219,63.5C219,63.5,219,63.5,219,63.5c-0.1,0-0.1,0-0.1,0c0,0,0,0,0,0c0,0-0.1,0-0.1,0c0,0,0,0,0,0
				c0,0-0.1,0-0.1,0l0,0.1l0.5,0.1c0,0,0,0,0,0C219.1,63.5,219.1,63.5,219,63.5z"/>
			<path class="st0" d="M214.1,59c0-0.1,0-0.2,0.1-0.3C214.1,58.8,214.1,58.9,214.1,59z"/>
			<path class="st0" d="M214.2,58.5c0,0,0,0.1,0,0.1C214.2,58.6,214.2,58.5,214.2,58.5z"/>
			<path class="st0" d="M214.2,58.6c0,0,0-0.1,0-0.1c0-0.1,0-0.2,0-0.3c0,0,0,0,0,0l-0.1,0.9c0-0.1,0-0.2,0.1-0.3
				C214.1,58.7,214.1,58.6,214.2,58.6z"/>
			<path class="st0" d="M214.4,54.4l-1.3,1.1C213.9,55.5,214.4,54.4,214.4,54.4z"/>
			<path class="st0" d="M203.1,44.1C203.1,44.2,203.1,44.2,203.1,44.1C203.1,44.2,203.1,44.2,203.1,44.1z"/>
			<path class="st0" d="M203.1,44.1c0-0.1,0-0.2,0-0.3v0l-0.1,0.7C203,44.4,203.1,44.3,203.1,44.1C203.1,44.2,203.1,44.2,203.1,44.1
				z"/>
			<path class="st0" d="M213.4,50.2C213.4,50.2,213.4,50.2,213.4,50.2C213.4,50.2,213.4,50.2,213.4,50.2z"/>
			<path class="st0" d="M213.1,49.9C213.1,49.9,213.1,49.9,213.1,49.9C213.1,49.9,213.1,49.9,213.1,49.9z"/>
			<path class="st0" d="M213.2,50.1C213.3,50.1,213.3,50.1,213.2,50.1C213.3,50.1,213.3,50.1,213.2,50.1z"/>
			<path class="st0" d="M213.5,50.4C213.5,50.4,213.5,50.4,213.5,50.4C213.5,50.4,213.5,50.4,213.5,50.4z"/>
			<path class="st0" d="M213.5,50.4c0-0.1-0.1-0.1-0.1-0.2c0,0,0,0,0,0c0,0-0.1-0.1-0.1-0.1c0,0,0,0,0,0c0,0-0.1-0.1-0.1-0.1
				c0,0,0,0,0,0c-0.1-0.1-0.2-0.2-0.3-0.2l1,1.3C213.7,50.7,213.6,50.5,213.5,50.4C213.5,50.4,213.5,50.4,213.5,50.4z"/>
			<path class="st0" d="M214.1,57.5C214.1,57.5,214.1,57.5,214.1,57.5C214.1,57.5,214.1,57.5,214.1,57.5z"/>
			<path class="st0" d="M213.2,55.6C213.2,55.6,213.2,55.6,213.2,55.6C213.2,55.6,213.2,55.6,213.2,55.6z"/>
			<path class="st0" d="M213.1,55.5C213.1,55.5,213.1,55.5,213.1,55.5C213.1,55.5,213.1,55.5,213.1,55.5z"/>
			<path class="st0" d="M213.1,55.6C213.1,55.6,213.1,55.6,213.1,55.6C213.1,55.6,213.1,55.6,213.1,55.6z"/>
			<path class="st0" d="M214.1,57.5c-0.2-0.9-0.7-1.6-0.9-1.9c0,0,0,0,0,0c0,0,0,0,0,0c0,0,0,0,0,0c0,0,0,0,0,0c0,0,0,0,0,0l1.1,2.2
				C214.1,57.7,214.1,57.6,214.1,57.5C214.1,57.5,214.1,57.5,214.1,57.5z"/>
			<path class="st0" d="M217.3,61C217.3,61,217.3,61,217.3,61C217.3,61,217.3,61,217.3,61z"/>
			<path class="st0" d="M217.3,61C217.3,60.9,217.3,60.9,217.3,61l-1.4-1.1l-1.8-0.8l1.1,0.5l1.4,1.1l1.5,1.8
				C217.8,61.8,217.4,61.1,217.3,61C217.3,61,217.3,61,217.3,61z"/>
			<path class="st0" d="M213.1,55.5C213.1,55.5,213.1,55.5,213.1,55.5C213.1,55.5,213.1,55.5,213.1,55.5z"/>
			<path class="st0" d="M213.5,50.4c0.1,0.2,0.2,0.4,0.3,0.6l0,0C213.7,50.7,213.6,50.5,213.5,50.4z"/>
			<path class="st0" d="M203.1,43.8c0,0.1,0,0.2,0,0.3C203.1,44,203.1,43.9,203.1,43.8z"/>
			<path class="st0" d="M213.4,50.2c0,0,0.1,0.1,0.1,0.2C213.5,50.3,213.4,50.3,213.4,50.2z"/>
			<path class="st0" d="M210.8,48.7C210.8,48.8,210.9,48.8,210.8,48.7C210.9,48.8,210.8,48.7,210.8,48.7L210.8,48.7L210.8,48.7z"/>
			<path class="st0" d="M218.8,63.4C218.8,63.4,218.8,63.4,218.8,63.4C218.8,63.4,218.8,63.4,218.8,63.4z"/>
			<path class="st0" d="M203,44.5c0-0.1,0-0.2,0.1-0.4C203.1,44.3,203,44.4,203,44.5z"/>
			<path class="st0" d="M213.3,50.1c0,0,0.1,0.1,0.1,0.1C213.3,50.2,213.3,50.1,213.3,50.1z"/>
			<path class="st0" d="M213.1,49.9c0,0,0.1,0.1,0.1,0.1C213.2,50,213.2,50,213.1,49.9z"/>
			<path class="st0" d="M210.9,48.8c0,0,0,0.1,0,0.1l0,0C210.9,48.9,210.9,48.8,210.9,48.8z"/>
			<path class="st0" d="M212.8,49.7L212.8,49.7c0.1,0.1,0.2,0.2,0.3,0.2C213,49.8,212.9,49.8,212.8,49.7z"/>
			<path class="st0" d="M214.2,58.1c0,0.1,0,0.2,0,0.3C214.2,58.4,214.2,58.2,214.2,58.1z"/>
			<path class="st0" d="M219.2,63.5C219.2,63.5,219.2,63.5,219.2,63.5L219.2,63.5C219.2,63.5,219.2,63.5,219.2,63.5z"/>
			<path class="st0" d="M219,63.5C219,63.5,219,63.5,219,63.5C219,63.5,219,63.5,219,63.5z"/>
			<path class="st0" d="M214.2,58.6c0,0,0,0.1,0,0.1C214.1,58.7,214.1,58.6,214.2,58.6z"/>
			<path class="st0" d="M217.3,61c0.1,0.2,0.5,0.8,0.8,1.4v0C217.8,61.8,217.4,61.1,217.3,61z"/>
			<path class="st0" d="M217.3,60.9C217.3,60.9,217.3,60.9,217.3,60.9C217.3,61,217.3,60.9,217.3,60.9z"/>
			<path class="st0" d="M214.1,57.5c0,0.1,0,0.1,0,0.2v0C214.1,57.7,214.1,57.6,214.1,57.5z"/>
			<path class="st0" d="M213.1,55.6C213.1,55.6,213.1,55.6,213.1,55.6C213.1,55.6,213.1,55.6,213.1,55.6z"/>
			<path class="st0" d="M213.2,55.6c0.2,0.3,0.7,0.9,0.9,1.9C213.9,56.6,213.4,55.9,213.2,55.6z"/>
			<path class="st0" d="M218.9,63.5C218.9,63.5,218.9,63.5,218.9,63.5C218.9,63.5,218.9,63.5,218.9,63.5z"/>
			<path class="st0" d="M210.9,48.8C210.9,48.8,210.9,48.8,210.9,48.8C210.9,48.8,210.9,48.8,210.9,48.8z"/>
			<path class="st0" d="M210.9,48.8C210.9,48.8,210.8,48.8,210.9,48.8l0,0.1C210.9,48.9,210.9,48.8,210.9,48.8
				C210.9,48.8,210.9,48.8,210.9,48.8z"/>
			<path class="st0" d="M201.3,41.5C201.3,41.5,201.3,41.5,201.3,41.5C201.3,41.5,201.3,41.5,201.3,41.5z"/>
			<path class="st0" d="M218.4,62.9C218.3,62.9,218.3,62.9,218.4,62.9C218.3,62.9,218.3,62.9,218.4,62.9z"/>
			<path class="st0" d="M213.9,51.3C213.9,51.3,213.9,51.3,213.9,51.3C213.9,51.3,213.9,51.3,213.9,51.3z"/>
			<path class="st0" d="M213.9,51.7c0-0.1,0-0.1,0-0.2C213.9,51.6,213.9,51.6,213.9,51.7z"/>
			<path class="st0" d="M201.4,41.6C201.4,41.6,201.4,41.6,201.4,41.6C201.4,41.6,201.4,41.6,201.4,41.6z"/>
			<path class="st0" d="M211.7,49.2C211.7,49.2,211.7,49.2,211.7,49.2C211.7,49.2,211.7,49.2,211.7,49.2z"/>
			<path class="st0" d="M220.1,63.6c-0.1,0-0.1,0-0.2,0C220,63.6,220,63.6,220.1,63.6z"/>
			<path class="st0" d="M201.2,41.5C201.2,41.5,201.2,41.5,201.2,41.5C201.2,41.5,201.2,41.5,201.2,41.5z"/>
			<path class="st0" d="M218.4,63.3c0,0,0.1,0,0.3,0.1l0,0C218.5,63.4,218.4,63.3,218.4,63.3z"/>
			<path class="st0" d="M211.5,49.1C211.5,49.1,211.5,49.1,211.5,49.1C211.5,49.1,211.5,49.1,211.5,49.1z"/>
			<path class="st0" d="M218.4,63.2C218.4,63.1,218.4,63.1,218.4,63.2C218.4,63.1,218.4,63.1,218.4,63.2z"/>
			<path class="st0" d="M210.9,49C210.9,49,210.9,49,210.9,49C210.9,49,210.9,49,210.9,49z"/>
			<path class="st0" d="M219.8,63.6c-0.1,0-0.1,0-0.2,0C219.7,63.6,219.8,63.6,219.8,63.6z"/>
			<path class="st0" d="M211.1,49C211.1,49,211.1,49,211.1,49C211.1,49,211.1,49,211.1,49z"/>
			<path class="st0" d="M212.3,49.4C212.3,49.4,212.3,49.4,212.3,49.4C212.3,49.4,212.3,49.4,212.3,49.4z"/>
			<path class="st0" d="M212.6,49.6C212.6,49.6,212.6,49.6,212.6,49.6C212.6,49.6,212.6,49.6,212.6,49.6z"/>
			<path class="st0" d="M212.5,49.5C212.5,49.5,212.5,49.5,212.5,49.5C212.5,49.5,212.5,49.5,212.5,49.5z"/>
			<path class="st0" d="M219.4,63.6c-0.1,0-0.1,0-0.2,0C219.3,63.6,219.3,63.6,219.4,63.6z"/>
			<path class="st0" d="M213.8,51.1C213.8,51.1,213.8,51.1,213.8,51.1C213.8,51.1,213.8,51.1,213.8,51.1z"/>
			<path class="st0" d="M207.2,47.2C207.2,47.2,207.2,47.2,207.2,47.2C207.2,47.2,207.2,47.2,207.2,47.2z"/>
			<path class="st0" d="M219.6,63.6c-0.1,0-0.1,0-0.2,0C219.5,63.6,219.5,63.6,219.6,63.6z"/>
			<path class="st0" d="M210.9,49C210.9,49,210.9,49,210.9,49C210.9,49,210.9,49,210.9,49z"/>
			<path class="st0" d="M211,49C211,49,211,49,211,49C211,49,211,49,211,49z"/>
			<path class="st0" d="M207.3,47.3C207.3,47.3,207.3,47.3,207.3,47.3C207.3,47.3,207.3,47.3,207.3,47.3z"/>
			<path class="st0" d="M207.2,47.2C207.2,47.2,207.2,47.2,207.2,47.2C207.2,47.2,207.2,47.2,207.2,47.2
				C207.2,47.2,207.2,47.2,207.2,47.2z"/>
			<path class="st0" d="M210.8,48.7c-0.4-0.9-2.9-1.4-3.5-1.5c0,0,0,0,0,0c0,0-0.1,0-0.1,0c0,0,0,0,0,0l3.3,1.6l0.3,0.1L210.8,48.7
				C210.8,48.7,210.8,48.7,210.8,48.7z"/>
			<path class="st0" d="M203,44.5l1.4,0.8l2.8,1.9C206.2,45.7,203,44.5,203,44.5z"/>
			<path class="st0" d="M207.8,47.3c0,0,0.1,0,0.1,0C207.8,47.3,207.8,47.3,207.8,47.3z"/>
			<path class="st0" d="M208,47.4c0,0,0.1,0,0.1,0C208.1,47.4,208.1,47.4,208,47.4z"/>
			<path class="st0" d="M208.5,47.5c0,0,0.1,0,0.1,0C208.6,47.5,208.5,47.5,208.5,47.5z"/>
			<path class="st0" d="M208.2,47.4c0,0,0.1,0,0.1,0C208.3,47.4,208.2,47.4,208.2,47.4z"/>
			<path class="st0" d="M208.3,47.4c0,0,0.1,0,0.1,0C208.4,47.5,208.4,47.5,208.3,47.4z"/>
			<path class="st0" d="M207.6,47.3c0,0,0.1,0,0.1,0C207.7,47.3,207.7,47.3,207.6,47.3z"/>
			<path class="st0" d="M207.2,47.2C207.2,47.2,207.2,47.2,207.2,47.2c0.1,0,0.1,0,0.1,0c0,0,0,0,0,0c0,0,0,0,0,0
				C207.3,47.3,207.2,47.2,207.2,47.2z"/>
			<path class="st0" d="M208.7,47.5c0,0,0.1,0,0.1,0C208.8,47.6,208.7,47.5,208.7,47.5z"/>
			<path class="st0" d="M207.5,47.3C207.6,47.3,207.6,47.3,207.5,47.3C207.6,47.3,207.6,47.3,207.5,47.3z"/>
			<path class="st0" d="M207.4,47.3C207.4,47.3,207.4,47.3,207.4,47.3C207.4,47.3,207.4,47.3,207.4,47.3z"/>
			<path class="st0" d="M207.4,47.3C207.5,47.3,207.5,47.3,207.4,47.3C207.5,47.3,207.5,47.3,207.4,47.3z"/>
			<path class="st0" d="M207.9,47.4c0,0,0.1,0,0.1,0C208,47.4,207.9,47.4,207.9,47.4z"/>
			<path class="st0" d="M209.3,47.7c0,0,0.1,0,0.1,0.1C209.4,47.8,209.4,47.7,209.3,47.7z"/>
			<path class="st0" d="M210.4,48.2c0,0,0.1,0,0.1,0.1C210.4,48.3,210.4,48.2,210.4,48.2z"/>
			<path class="st0" d="M209.5,47.8c0,0,0.1,0,0.1,0.1C209.6,47.8,209.5,47.8,209.5,47.8z"/>
			<path class="st0" d="M210.5,48.3C210.5,48.3,210.6,48.4,210.5,48.3C210.6,48.4,210.5,48.3,210.5,48.3z"/>
			<path class="st0" d="M210,48c0,0,0.1,0,0.1,0.1C210,48,210,48,210,48z"/>
			<path class="st0" d="M210.2,48.1c0,0,0.1,0,0.1,0.1C210.3,48.2,210.3,48.2,210.2,48.1z"/>
			<path class="st0" d="M210.6,48.4C210.6,48.4,210.6,48.4,210.6,48.4C210.6,48.4,210.6,48.4,210.6,48.4z"/>
			<path class="st0" d="M209.7,47.8c0,0,0.1,0,0.1,0.1C209.7,47.9,209.7,47.9,209.7,47.8z"/>
			<path class="st0" d="M210.1,48.1c0,0,0.1,0,0.1,0.1C210.2,48.1,210.1,48.1,210.1,48.1z"/>
			<path class="st0" d="M208.8,47.6c0,0,0.1,0,0.1,0C208.9,47.6,208.9,47.6,208.8,47.6z"/>
			<path class="st0" d="M210.8,48.7L210.8,48.7L210.8,48.7C210.8,48.7,210.8,48.7,210.8,48.7C210.8,48.7,210.8,48.7,210.8,48.7z"/>
			<path class="st0" d="M210.8,48.6C210.8,48.6,210.8,48.6,210.8,48.6C210.8,48.6,210.8,48.6,210.8,48.6z"/>
			<path class="st0" d="M209,47.6c0,0,0.1,0,0.1,0C209.1,47.7,209,47.6,209,47.6z"/>
			<path class="st0" d="M209.8,47.9c0,0,0.1,0,0.1,0.1C209.9,48,209.9,47.9,209.8,47.9z"/>
			<path class="st0" d="M209.2,47.7c0,0,0.1,0,0.1,0C209.3,47.7,209.2,47.7,209.2,47.7z"/>
			<path class="st0" d="M210.7,48.5C210.7,48.5,210.7,48.5,210.7,48.5C210.7,48.5,210.7,48.5,210.7,48.5z"/>
			<path class="st0" d="M210.7,48.5C210.7,48.5,210.7,48.5,210.7,48.5C210.7,48.5,210.7,48.5,210.7,48.5z"/>
			<path class="st0" d="M208.8,47.6C208.8,47.6,208.8,47.6,208.8,47.6C208.8,47.6,208.8,47.6,208.8,47.6z"/>
			<path class="st0" d="M210.1,48C210.1,48.1,210.1,48.1,210.1,48C210.1,48.1,210.1,48.1,210.1,48z"/>
			<path class="st0" d="M209.9,48C209.9,48,210,48,209.9,48C210,48,209.9,48,209.9,48z"/>
			<path class="st0" d="M210.5,48.3C210.5,48.3,210.5,48.3,210.5,48.3C210.5,48.3,210.5,48.3,210.5,48.3z"/>
			<path class="st0" d="M210.8,48.6C210.8,48.6,210.8,48.6,210.8,48.6C210.8,48.6,210.8,48.6,210.8,48.6z"/>
			<path class="st0" d="M210.2,48.1C210.2,48.1,210.2,48.1,210.2,48.1C210.2,48.1,210.2,48.1,210.2,48.1z"/>
			<path class="st0" d="M210.4,48.2C210.4,48.2,210.4,48.2,210.4,48.2C210.4,48.2,210.4,48.2,210.4,48.2z"/>
			<path class="st0" d="M210.8,48.7C210.8,48.7,210.8,48.7,210.8,48.7C210.8,48.7,210.8,48.7,210.8,48.7z"/>
			<path class="st0" d="M210.6,48.4C210.6,48.4,210.6,48.4,210.6,48.4C210.6,48.4,210.6,48.4,210.6,48.4z"/>
			<path class="st0" d="M209.3,47.7C209.3,47.7,209.3,47.7,209.3,47.7C209.3,47.7,209.3,47.7,209.3,47.7z"/>
			<path class="st0" d="M208,47.4C208,47.4,208,47.4,208,47.4C208,47.4,208,47.4,208,47.4z"/>
			<path class="st0" d="M208.6,47.5C208.6,47.5,208.6,47.5,208.6,47.5C208.6,47.5,208.6,47.5,208.6,47.5z"/>
			<path class="st0" d="M208.2,47.4C208.2,47.4,208.2,47.4,208.2,47.4C208.2,47.4,208.2,47.4,208.2,47.4z"/>
			<path class="st0" d="M208.3,47.4C208.3,47.4,208.3,47.4,208.3,47.4C208.3,47.4,208.3,47.4,208.3,47.4z"/>
			<path class="st0" d="M208.5,47.5C208.5,47.5,208.5,47.5,208.5,47.5C208.5,47.5,208.5,47.5,208.5,47.5z"/>
			<path class="st0" d="M209.1,47.7C209.1,47.7,209.1,47.7,209.1,47.7C209.1,47.7,209.1,47.7,209.1,47.7z"/>
			<path class="st0" d="M207.9,47.4C207.9,47.4,207.9,47.4,207.9,47.4C207.9,47.4,207.9,47.4,207.9,47.4z"/>
			<path class="st0" d="M207.4,47.3C207.4,47.3,207.4,47.3,207.4,47.3C207.4,47.3,207.4,47.3,207.4,47.3z"/>
			<path class="st0" d="M209,47.6C209,47.6,209,47.6,209,47.6C209,47.6,209,47.6,209,47.6z"/>
			<path class="st0" d="M207.4,47.3C207.4,47.3,207.4,47.3,207.4,47.3C207.4,47.3,207.4,47.3,207.4,47.3z"/>
			<path class="st0" d="M209.6,47.8C209.6,47.8,209.6,47.8,209.6,47.8C209.6,47.8,209.6,47.8,209.6,47.8z"/>
			<path class="st0" d="M209.8,47.9C209.8,47.9,209.8,47.9,209.8,47.9C209.8,47.9,209.8,47.9,209.8,47.9z"/>
			<path class="st0" d="M209.5,47.8C209.5,47.8,209.5,47.8,209.5,47.8C209.5,47.8,209.5,47.8,209.5,47.8z"/>
			<path class="st0" d="M207.8,47.3C207.8,47.3,207.8,47.3,207.8,47.3C207.8,47.3,207.8,47.3,207.8,47.3z"/>
			<path class="st0" d="M207.5,47.3C207.5,47.3,207.5,47.3,207.5,47.3C207.5,47.3,207.5,47.3,207.5,47.3z"/>
			<path class="st0" d="M207.6,47.3C207.6,47.3,207.6,47.3,207.6,47.3C207.6,47.3,207.6,47.3,207.6,47.3z"/>
			<path class="st0" d="M207.3,47.3C207.3,47.3,207.3,47.3,207.3,47.3C207.3,47.3,207.3,47.3,207.3,47.3z"/>
			<path class="st0" d="M210.8,48.7C210.8,48.6,210.8,48.6,210.8,48.7c-0.1-0.1-0.1-0.1-0.1-0.1c0,0,0-0.1-0.1-0.1c0,0,0,0,0,0
				c0,0-0.1-0.1-0.1-0.1c0,0,0,0,0,0c0,0-0.1-0.1-0.1-0.1c0,0,0,0,0,0c0,0-0.1,0-0.1-0.1c0,0,0,0,0,0c0,0-0.1,0-0.1-0.1c0,0,0,0,0,0
				c0,0-0.1,0-0.1-0.1c0,0,0,0,0,0c0,0-0.1,0-0.1-0.1c0,0,0,0,0,0c0,0-0.1,0-0.1-0.1c0,0,0,0,0,0c0,0-0.1,0-0.1-0.1c0,0,0,0,0,0
				c0,0-0.1,0-0.1-0.1c0,0,0,0,0,0c0,0-0.1,0-0.1-0.1c0,0,0,0,0,0c0,0-0.1,0-0.1,0c0,0,0,0,0,0c0,0-0.1,0-0.1,0c0,0,0,0,0,0
				c0,0-0.1,0-0.1,0c0,0,0,0,0,0c0,0-0.1,0-0.1,0c0,0,0,0,0,0c0,0-0.1,0-0.1,0c0,0,0,0,0,0c0,0-0.1,0-0.1,0c0,0,0,0,0,0
				c0,0-0.1,0-0.1,0c0,0,0,0,0,0c0,0-0.1,0-0.1,0c0,0,0,0,0,0c0,0-0.1,0-0.1,0c0,0,0,0,0,0c0,0-0.1,0-0.1,0c0,0,0,0,0,0
				c0,0-0.1,0-0.1,0c0,0,0,0,0,0c0,0-0.1,0-0.1,0c0,0,0,0,0,0c0,0-0.1,0-0.1,0c0,0,0,0,0,0c0,0,0,0-0.1,0c0,0,0,0,0,0c0,0,0,0,0,0
				C208,47.4,210.5,47.8,210.8,48.7C210.8,48.7,210.8,48.7,210.8,48.7C210.8,48.7,210.8,48.7,210.8,48.7z"/>
			<path class="st0" d="M219.2,63.5c0.1,0,0.1,0,0.2,0c0,0,0,0,0,0c0.1,0,0.1,0,0.2,0c0,0,0,0,0,0c0.1,0,0.1,0,0.2,0c0,0,0,0,0,0
				c0.1,0,0.1,0,0.2,0L219.2,63.5C219.2,63.5,219.2,63.5,219.2,63.5z"/>
			<polygon class="st0" points="219.2,63.5 219.2,63.5 219.2,63.5 			"/>
			<path class="st0" d="M219.9,63.6C219.9,63.6,219.9,63.6,219.9,63.6C219.9,63.6,219.9,63.6,219.9,63.6z"/>
			<path class="st0" d="M219.4,63.6C219.4,63.6,219.4,63.6,219.4,63.6C219.4,63.6,219.4,63.6,219.4,63.6z"/>
			<path class="st0" d="M219.6,63.6C219.6,63.6,219.6,63.6,219.6,63.6C219.6,63.6,219.6,63.6,219.6,63.6z"/>
			<path class="st0" d="M218.2,62.5l-0.1-0.1c0.1,0.2,0.2,0.3,0.2,0.5c0,0,0,0,0,0c0,0.1,0,0.1,0,0.2c0,0,0,0,0,0c0,0.1,0,0.1,0,0.2
				c0,0,0.1,0,0.3,0.1L218.2,62.5z"/>
			<path class="st0" d="M218.4,63.3c0,0,0-0.1,0-0.2C218.4,63.2,218.4,63.3,218.4,63.3z"/>
			<path class="st0" d="M218.4,63.1c0-0.1,0-0.1,0-0.2C218.4,63,218.4,63.1,218.4,63.1z"/>
			<path class="st0" d="M218.1,62.4c0.1,0.2,0.2,0.3,0.2,0.5C218.3,62.8,218.2,62.6,218.1,62.4L218.1,62.4z"/>
			<path class="st0" d="M214.2,57.9l-0.1-0.1c0,0.1,0,0.3,0,0.4v0L214.2,57.9z"/>
			<path class="st0" d="M214.1,57.7c0,0.1,0,0.3,0,0.4C214.2,58,214.2,57.9,214.1,57.7L214.1,57.7z"/>
			<path class="st0" d="M214.1,51.3l-0.3-0.4c0,0.1,0,0.1,0,0.2c0,0,0,0,0,0c0,0.1,0,0.1,0,0.2c0,0,0,0,0,0.1c0,0,0,0.1,0,0.1
				c0,0.1,0,0.1,0,0.2c0,0-0.3,1.4,0.5,2.7l-0.3-1.3V51.3z"/>
			<path class="st0" d="M213.9,51.3c0-0.1,0-0.1,0-0.2C213.9,51.2,213.9,51.2,213.9,51.3z"/>
			<path class="st0" d="M213.9,51.5c0,0,0-0.1,0-0.1C213.9,51.4,213.9,51.4,213.9,51.5z"/>
			<path class="st0" d="M213.8,50.9c0,0.1,0,0.1,0,0.2C213.8,51.1,213.8,51,213.8,50.9L213.8,50.9z"/>
			<path class="st0" d="M212.6,49.4l-1.7-0.5c0,0,0,0.1,0,0.1c0,0,0,0,0,0c0,0,0,0,0,0c0,0,0,0,0,0c0,0,0,0,0,0c0,0,0,0,0,0
				c0,0,0,0,0,0c0,0,0,0,0.1,0c0,0,0,0,0,0c0.1,0,0.3,0.1,0.4,0.1c0,0,0,0,0,0c0,0,0.1,0,0.1,0c0,0,0,0,0,0c0.2,0.1,0.4,0.1,0.6,0.2
				c0,0,0,0,0,0c0.1,0,0.1,0,0.2,0.1c0,0,0,0,0,0c0,0,0.1,0.1,0.1,0.1c0,0,0,0,0,0c0.1,0,0.1,0.1,0.2,0.1L212.6,49.4z"/>
			<path class="st0" d="M210.9,49C210.9,49,210.9,49,210.9,49C210.9,49,210.9,49,210.9,49z"/>
			<path class="st0" d="M212.6,49.6c0.1,0,0.1,0.1,0.2,0.1h0C212.7,49.6,212.7,49.6,212.6,49.6z"/>
			<path class="st0" d="M210.9,48.9c0,0,0,0.1,0,0.1C210.9,49,210.9,48.9,210.9,48.9L210.9,48.9z"/>
			<path class="st0" d="M211.7,49.2c0,0-0.1,0-0.1,0C211.6,49.1,211.6,49.1,211.7,49.2z"/>
			<path class="st0" d="M212.6,49.6c0,0-0.1-0.1-0.1-0.1C212.5,49.5,212.6,49.5,212.6,49.6z"/>
			<path class="st0" d="M211.1,49C211,49,211,49,211.1,49C211,49,211,49,211.1,49z"/>
			<path class="st0" d="M211.5,49.1c-0.2,0-0.3-0.1-0.4-0.1C211.2,49,211.3,49.1,211.5,49.1z"/>
			<path class="st0" d="M212.5,49.5c-0.1,0-0.1-0.1-0.2-0.1C212.4,49.4,212.4,49.5,212.5,49.5z"/>
			<path class="st0" d="M210.9,49C210.9,49,210.9,49,210.9,49C210.9,49,210.9,49,210.9,49z"/>
			<path class="st0" d="M211,49C211,49,211,49,211,49C211,49,211,49,211,49z"/>
			<path class="st0" d="M212.3,49.4c-0.2-0.1-0.4-0.2-0.6-0.2C211.9,49.2,212.1,49.3,212.3,49.4z"/>
			<path class="st0" d="M201.4,41.6c0.5,0.2,1.7,0.7,1.7,2.2C203.1,42.3,201.8,41.7,201.4,41.6z"/>
			<path class="st0" d="M201.4,41.6C201.3,41.5,201.3,41.5,201.4,41.6C201.3,41.5,201.3,41.5,201.4,41.6z"/>
			<path class="st0" d="M201.3,41.5C201.2,41.5,201.2,41.5,201.3,41.5C201.2,41.5,201.2,41.5,201.3,41.5z"/>
			<path class="st0" d="M201.2,41.5C201.2,41.5,201.2,41.5,201.2,41.5C201.2,41.5,201.2,41.5,201.2,41.5z"/>
		</g>
		<path class="st1" d="M186.6,54.3l0.4,0.1l0,0.1l0.1-1.4l1.3-0.8l1.9-0.5c0-1.7,1-1.3,1-1.3c1.9,1,0.8-2.9,0.8-2.9
			c0.1-1.4-1.4-1.9-1.4-1.9c-1,0-2.6-1.4-2.6-1.4c-1.1-0.7-1.6,0.2-1.6,0.2l-0.4,1.2c-0.2,0.1-0.5-0.3-0.7-0.6
			c-0.2,0.4-0.3,0.9-0.3,1.6c0,0,0.6,0.5-0.3,1.5c0,0,0.5,1.6-0.7,3.1l-0.6,1.9l1.9,0.4L186.6,54.3z"/>
		<path class="st2" d="M264.4,29.5c0,0-3.1,0.9-4-1c0,0,0.5-1.5-0.8-2.7l-0.6-2.5c0,0-0.2-1.7-3.2-1.3c0,0-3.9-0.2-5.2-0.6
			c0,0-1.9-1.4-2.4-1.5l-1.4,0.2l-0.2-0.6l-0.8-0.4c0,0-1.5-0.6-1.9-0.6c0,0-1.1-1-1.8-1.6c0,0,0.1-1.1,0.9-2c0,0,0.3-0.5-1.1,0.2
			c0,0-0.9,0.7-2,0.2c0,0-1.8-1.4-2-3.3c0,0-1.3-1.7-2.7-2.1L234,8.9c0,0-2.1-0.6-4.4,1.1l-1-0.8l-1,0.8c0,0-0.2,0.8-1.7,2.1
			l-0.9,0.9c0,0-1.7,2.2-4.4,4.3c0,0-0.3,0.5,0.2,0.7c0,0,3.6,1.1,4.1,2.5c0,0-0.5,0.6-1.2-0.3l-1.5-1c0,0-0.7-0.6-1.3,0.1
			c0,0-0.7,0.2-0.6,1.2c0,0-2.2,2.1-5.9,1.8c0,0-1.1,0.2-1.8,0.8c0,0-0.6-0.1-1.3-0.2c0.6,0.2,0.9,0.5,0.9,0.5l1,0.8l1,0.2l1.3,1
			h1.8l1.7,1.8l1.7,0.6l0.5,1.8v1.9l-1,1.1l-1.8,0.5l-1.7,1.3l-1.3,1.4l-0.3,1.6l0.2,1.1l0.5,1.3l1.3,1.8v1.3v1.8l1.3,0.6l2.2-1.3
			l1.3,0.2l0.7,1.3l1,1l0.7,1l0.7,1l-1.3,1.3l0.2,1.6c0,1.8,2.2,3.7,2.2,3.7c1.7,0.6,1,1.9,1,1.9c0.3,0.3,0.3,0.6,0.3,0.8v0l0.2-0.2
			c1.1,0,2.8-1.6,2.8-1.6c1.6,1.6,2.1-1.6,2.1-1.6c1,0,3.8-1.4,3.8-1.4l-0.3-4.5l2.1-0.8l0.9-1.2l4.3-0.8c1.4-1.6,3-2.9,3-2.9h1.9
			c0.1-1.1,3.5-3.9,3.5-3.9c3.8-0.4,3-1.4,3-1.4c0.4-1-1.1-2.9-1.1-2.9c0.6,0.5,2.4-0.2,2.4-0.2c2.4-1.9,5.5-2,5.5-2l1.5-0.5
			l1.4,0.8c0,0,2.1-0.6,2.1-1.8l0.2-1C266.4,29.3,265.4,29.5,264.4,29.5z"/>
		<path class="st2" d="M262.3,31c0,0-3.5,0.1-6.1,2.1c0,0-2.2,1.6-2.9,1.1c0,0,1,1.1,1.1,2.1c0,0,1.2,1.1-3,1.4c0,0-3.8,2.9-3.9,4
			h-2.1c0,0-1.8,1.3-3.4,2.9l-4.7,0.8l-1,1.2l-2.4,0.8l0.3,4.6c0,0-3.1,1.5-4.2,1.5c0,0-0.6,3.1-2.4,1.6c0,0-1.8,1.6-3.1,1.6
			l-0.2,0.2c0,0,0,0,0,0c0,0.3-0.3,0.5-0.3,0.6c0,0,0,0,0,0c0,0,0,0,0,0c-1.1,0.2-0.2,1.3-0.2,1.3c0.7,1.6-1.1,3.7-1.1,3.7l-3.7,0.2
			l-0.8,0.2l-0.2,0.3l0.8-0.1v0.5l-0.6,1.1l-0.4,1.8l0.4,1.7l-1.1,0.7l-2.1,1.2l-0.8,1.3l-0.8,1l-0.8,0.8l-0.8,1.9
			c0,0,1.1,2.1,0.8,3c0,0,0.3,1.1,2.2,1.1c0,0,1.4,1.6,3.3,1.6c0,0,1.6,0.1,2.6,0.1c0,0,1.8-0.7,1.8,0.5c0,0,1.5,0.6,2.9,0.1
			c0,0,1.7,1.1,4.5,1.1c0,0,3.9,2.5,5.4,2.3c0,0,2.4,0.3,1.5-1c0,0,1.7,0.9,1.6-1.6c0,0,1-1.5,4.5,0.5c0,0,1.8,1.2,4.9,0.7l2.7-1.2
			c0.3-0.5,1-2.1,0.8-4.2c0,0-0.2-2.4,2.6-4.4c0,0,1.7-2.2,3.3-1.9c0,0-0.4-1.5-1.9-1.8c0,0-1.1-0.9,0.4-1.3c0,0,3.6-0.3,2-3.5
			c0,0-0.2-1.8,0.7-2.2c0,0-2.6,0.6-1.3-0.8l1-0.7c0,0-2-0.8-2.8-2.4l-0.7-1.4v-1l-0.1-1.6l-0.2-1.1l-0.7-1l0.4-0.6
			c0,0-2.1-3.6-1.2-5.8l0.2-3.1l0.4-1c0,0,1.7-2.7,1.7-3.6c0,0,2.6,0.2,2.3-2.3c0,0,1.8-1.9,3-2.7c0,0,0.8-0.5,0.8-0.9l4.2-1.9
			l-1.5-0.9L262.3,31z"/>
		<path class="st2" d="M227,22.6c0,0,0.3,2.1,2.3,3.7l-0.2,1.6l-0.2,2.4l1.3,1.9l1.5,0.5l0.8,1.9l2.8,0.6l2-0.3l0.7-0.8l-0.5-1.6
			l1.8-1.4l2-1.1l-1.3-1.8l-0.2-1.8l-0.5-0.6l-2.3-1.1l-1-1.8l-0.2-2.5l-0.5-1.8l-1.2-0.5l-1-0.2l-1.7,1.1l-2.3,1l-1.3,0.5L227,22.6
			z"/>
		<polygon class="st2" points="238.7,20.4 239.4,21.8 239.7,23.4 240.7,24.8 242.9,24.8 244.2,26.1 246.2,27.2 248.6,26.4 
			248.9,25.5 247.7,24.7 247.7,23.6 248.2,22.6 249.4,21.5 248.7,20.4 247.2,19.6 245.6,19.3 244.4,18.5 243.4,18 239.5,19.3 		"/>
		<path class="st2" d="M210.9,48.8C210.9,48.8,210.9,48.8,210.9,48.8C210.9,48.8,210.8,48.7,210.9,48.8
			C210.8,48.7,210.8,48.7,210.9,48.8l0,0.1C210.9,48.9,210.9,48.8,210.9,48.8z"/>
		<path class="st2" d="M213.8,51.1c0,0.1,0,0.1,0,0.2c0,0,0,0,0,0.1c0,0,0,0.1,0,0.1c0,0.1,0,0.1,0,0.2c0,0-0.3,1.4,0.5,2.7
			l-0.3-1.3v-1.8l-0.3-0.4C213.8,51,213.8,51.1,213.8,51.1C213.8,51.1,213.8,51.1,213.8,51.1z"/>
		<path class="st2" d="M210.9,49C210.9,49,210.9,49,210.9,49C210.9,49,210.9,49,210.9,49C210.9,49,210.9,49,210.9,49
			C211,49,211,49,210.9,49C211,49,211,49,210.9,49c0.1,0,0.1,0,0.2,0c0,0,0,0,0,0c0.1,0,0.3,0.1,0.4,0.1c0,0,0,0,0,0
			c0,0,0.1,0,0.1,0c0,0,0,0,0,0c0.2,0.1,0.4,0.1,0.6,0.2c0,0,0,0,0,0c0.1,0,0.1,0,0.2,0.1c0,0,0,0,0,0c0,0,0.1,0.1,0.1,0.1
			c0,0,0,0,0,0c0.1,0,0.1,0.1,0.2,0.1l1,1.3c-0.1-0.2-0.2-0.4-0.3-0.6c0,0,0,0,0,0c0-0.1-0.1-0.1-0.1-0.2c0,0,0,0,0,0
			c0,0-0.1-0.1-0.1-0.1c0,0,0,0,0,0c0,0-0.1-0.1-0.1-0.1c0,0,0,0,0,0c-0.1-0.1-0.2-0.2-0.3-0.2l-0.2-0.3l-1.7-0.5
			C210.9,48.9,210.9,49,210.9,49C210.9,49,210.9,49,210.9,49z"/>
		<path class="st1" d="M203.1,44.2C203.1,44.2,203.1,44.2,203.1,44.2c0-0.2,0-0.3,0-0.4v0l-0.1,0.7C203,44.4,203.1,44.3,203.1,44.2z
			"/>
		<path class="st1" d="M203.1,43.8c0-1.6-1.3-2.1-1.7-2.2C201.8,41.7,203.1,42.3,203.1,43.8z"/>
		<path class="st2" d="M219.8,63.6c-0.1,0-0.1,0-0.2,0c0,0,0,0,0,0c-0.1,0-0.1,0-0.2,0c0,0,0,0,0,0c-0.1,0-0.1,0-0.2,0c0,0,0,0,0,0
			l-0.5-0.1l0-0.1c-0.2,0-0.3-0.1-0.3-0.1c0,0,0-0.1,0-0.2c0,0,0,0,0,0c0-0.1,0-0.1,0-0.2c0,0,0,0,0,0c-0.1-0.2-0.1-0.3-0.2-0.5
			l-1.5-1.8l-1.4-1.1l-1.1-0.5l0.1-0.9l0,0c0,0,0,0,0,0c0-0.1,0-0.3,0-0.4l0,0v0l-1.1-2.2l1.3-1.1c-0.8-1.3-0.5-2.7-0.5-2.7
			c0-0.1,0-0.1,0-0.2c0,0,0-0.1,0-0.1c0,0,0,0,0-0.1c0-0.1,0-0.1,0-0.2c0,0,0,0,0,0c0-0.1,0-0.1,0-0.2l-1-1.3
			c-0.1,0-0.1-0.1-0.2-0.1c0,0,0,0,0,0c0,0-0.1-0.1-0.1-0.1c0,0,0,0,0,0c-0.1,0-0.1-0.1-0.2-0.1c0,0,0,0,0,0
			c-0.2-0.1-0.4-0.2-0.6-0.2c0,0,0,0,0,0c0,0-0.1,0-0.1,0c0,0,0,0,0,0c-0.2,0-0.3-0.1-0.4-0.1c0,0,0,0,0,0c0,0,0,0-0.1,0
			c0,0,0,0,0,0c0,0,0,0,0,0c0,0,0,0,0,0c0,0,0,0,0,0c0,0,0,0,0,0c0,0,0,0,0,0c0,0,0-0.1,0-0.1l0-0.2c0,0,0,0,0,0c0,0,0,0,0,0
			c0,0,0-0.1-0.1-0.1c0,0,0,0,0,0c0,0,0-0.1-0.1-0.1c0,0,0,0,0,0c0,0-0.1-0.1-0.1-0.1c0,0,0,0,0,0c0,0-0.1-0.1-0.1-0.1c0,0,0,0,0,0
			c0,0-0.1,0-0.1-0.1c0,0,0,0,0,0c0,0-0.1,0-0.1-0.1c0,0,0,0,0,0c0,0-0.1,0-0.1-0.1c0,0,0,0,0,0c0,0-0.1,0-0.1-0.1c0,0,0,0,0,0
			c0,0-0.1,0-0.1-0.1c0,0,0,0,0,0c0,0-0.1,0-0.1-0.1c0,0,0,0,0,0c0,0-0.1,0-0.1-0.1c0,0,0,0,0,0c0,0-0.1,0-0.1-0.1c0,0,0,0,0,0
			c0,0-0.1,0-0.1,0c0,0,0,0,0,0c0,0-0.1,0-0.1,0c0,0,0,0,0,0c0,0-0.1,0-0.1,0c0,0,0,0,0,0c0,0-0.1,0-0.1,0c0,0,0,0,0,0
			c0,0-0.1,0-0.1,0c0,0,0,0,0,0c0,0-0.1,0-0.1,0c0,0,0,0,0,0c0,0-0.1,0-0.1,0c0,0,0,0,0,0c0,0-0.1,0-0.1,0c0,0,0,0,0,0
			c0,0-0.1,0-0.1,0c0,0,0,0,0,0c0,0-0.1,0-0.1,0c0,0,0,0,0,0c0,0-0.1,0-0.1,0c0,0,0,0,0,0c0,0-0.1,0-0.1,0c0,0,0,0,0,0
			c0,0-0.1,0-0.1,0c0,0,0,0,0,0c0,0,0,0-0.1,0c0,0,0,0,0,0c-0.1,0-0.1,0-0.1,0c0,0,0,0,0,0c-1-1.6-4.2-2.7-4.2-2.7l0.1-0.7v0v0
			c0-1.6-1.3-2.1-1.7-2.2c0,0,0,0,0,0c0,0-0.1,0-0.1,0c0,0,0,0,0,0c0,0,0,0-0.1,0c0,0,0,0,0,0c0,0,0,0,0,0c-1.2,0.2-1.7-0.5-1.7-0.5
			c-2.7,0-3.7-2.9-3.7-2.9c0-1.3-2.8-1.3-2.8-1.3c-0.7,0.1-1.7-0.3-2.4-0.6c-0.5,0.6-1.1,1.3-1.7,1.9l-0.5,0.8l-0.3,0.7l0.8,0.1
			c0,0-0.4,0.5-1.1,0.5l-0.5,0.9l-0.4,2.1c0,0-1.2,0.4-1.8,1.8c0.2,0.4,0.5,0.7,0.7,0.6l0.4-1.2c0,0,0.5-1,1.6-0.2
			c0,0,1.6,1.4,2.6,1.4c0,0,1.5,0.5,1.4,1.9c0,0,1.1,3.8-0.8,2.9c0,0-1-0.4-1,1.3l-1.9,0.5l-1.3,0.8l-0.1,1.3l0,0.1l2.3,0.8
			c0,0-1.1,0.7,0.1,1.7c0,0-0.4,1.6,0.4,2.4l3.6,1c0,0,1,1.9,2.4,2.5c0,0,2.4,1.2,1.9,1.9l-1.1,2c0,0,2.5,1.2,0.8,2.1
			c0,0-1.1-0.1-1.1,1.4l1.9,1.4l1.3-0.7l1.6-0.7l2.6,0.2l2.1-0.2l2.5-0.1c0,0,0.6,1.2,1.8,2c0,0,1.1,1.1,1.4,2.1
			c0.1,0.4,0.1,0.7-0.2,1l-0.5,1l2.1-0.1l2-0.5l0.9-0.5l0.8-1.9l0.8-0.8l0.8-1l0.8-1.3l1.9-1.2l1-0.7l-0.4-1.7l0.4-1.8l0.5-1.1v-0.5
			l-0.7,0.1l-1.3,0.2C220,63.6,220,63.6,219.8,63.6C219.9,63.6,219.9,63.6,219.8,63.6z"/>
		<path class="st2" d="M226.8,56.5c0,0,0.7-1.3-1-1.9c0,0-2.2-1.9-2.2-3.7l-0.2-1.6l1.3-1.3l-0.7-1l-0.7-1l-1-1l-0.7-1.3l-1.3-0.2
			l-2.2,1.3l-1.3-0.6v-1.8v-1.3l-1.3-1.8l-0.5-1.3l-0.2-1.1l0.3-1.6l1.3-1.4l1.7-1.3l1.8-0.5l1-1.1v-1.9l-0.5-1.8l-1.7-0.6l-1.7-1.8
			h-1.8l-1.3-1l-1-0.2l-1-0.8c0,0-0.2-0.3-0.9-0.5c-0.5,0-1.1,0-1.7,0.1l-1.7,0.9c0,0-1.5-0.1-2.6,0.8c-0.3,0.2-0.5,0.6-0.8,1
			c0,0-0.3,0.4-1.8,0.4c0,0-1.2,0.2-2.2,0.9c0,0-2.1,1.1-3,1.1l-0.1,0.6l-0.7,0.2l-0.5,0.6c0,0-3.3,1.3-3.9,4.7c0,0-0.4,0.8-1.1,1.8
			c-0.2,0.2-0.3,0.4-0.5,0.7c0.6,0.3,1.7,0.7,2.4,0.6c0,0,2.8,0,2.8,1.3c0,0,1,2.9,3.7,2.9c0,0,0.5,0.6,1.7,0.5c0,0,0,0,0,0
			c0,0,0,0,0,0c0,0,0,0,0.1,0c0,0,0,0,0,0c0,0,0.1,0,0.1,0c0,0,0,0,0,0c0.5,0.1,1.7,0.7,1.7,2.2v0v0v0c0,0.1,0,0.2,0,0.3
			c0,0,0,0,0,0c0,0.1,0,0.2-0.1,0.4c0,0,3.2,1.1,4.2,2.7c0,0,0,0,0,0c0,0,0.1,0,0.1,0c0,0,0,0,0,0c0,0,0,0,0.1,0c0,0,0,0,0,0
			c0,0,0.1,0,0.1,0c0,0,0,0,0,0c0,0,0.1,0,0.1,0c0,0,0,0,0,0c0,0,0.1,0,0.1,0c0,0,0,0,0,0c0,0,0.1,0,0.1,0c0,0,0,0,0,0
			c0,0,0.1,0,0.1,0c0,0,0,0,0,0c0,0,0.1,0,0.1,0c0,0,0,0,0,0c0,0,0.1,0,0.1,0c0,0,0,0,0,0c0,0,0.1,0,0.1,0c0,0,0,0,0,0
			c0,0,0.1,0,0.1,0c0,0,0,0,0,0c0,0,0.1,0,0.1,0c0,0,0,0,0,0c0,0,0.1,0,0.1,0c0,0,0,0,0,0c0,0,0.1,0,0.1,0c0,0,0,0,0,0
			c0,0,0.1,0,0.1,0c0,0,0,0,0,0c0,0,0.1,0,0.1,0.1c0,0,0,0,0,0c0,0,0.1,0,0.1,0.1c0,0,0,0,0,0c0,0,0.1,0,0.1,0.1c0,0,0,0,0,0
			c0,0,0.1,0,0.1,0.1c0,0,0,0,0,0c0,0,0.1,0,0.1,0.1c0,0,0,0,0,0c0,0,0.1,0,0.1,0.1c0,0,0,0,0,0c0,0,0.1,0,0.1,0.1c0,0,0,0,0,0
			c0,0,0.1,0,0.1,0.1c0,0,0,0,0,0c0,0,0.1,0.1,0.1,0.1c0,0,0,0,0,0c0,0,0.1,0.1,0.1,0.1c0,0,0,0,0,0c0,0,0,0.1,0.1,0.1c0,0,0,0,0,0
			c0,0,0,0.1,0.1,0.1c0,0,0,0,0,0c0,0,0,0,0,0c0,0,0,0,0,0c0,0,0,0,0,0c0,0,0,0,0,0c0,0,0,0.1,0,0.1l1.7,0.5l0.2,0.3
			c0.1,0.1,0.2,0.2,0.3,0.2c0,0,0,0,0,0c0,0,0.1,0.1,0.1,0.1c0,0,0,0,0,0c0,0,0.1,0.1,0.1,0.1c0,0,0,0,0,0c0,0,0.1,0.1,0.1,0.2
			c0,0,0,0,0,0c0.1,0.2,0.2,0.4,0.3,0.6l0.3,0.4v1.8l0.3,1.3c0,0-0.5,1.1-1.3,1.1c0,0,0,0,0,0c0,0,0,0,0,0c0,0,0,0,0,0c0,0,0,0,0,0
			c0,0,0,0,0,0c0.2,0.2,0.7,0.9,0.9,1.9c0,0,0,0,0,0c0,0.1,0,0.1,0,0.2l0,0v0l0.1,0.1l0,0.3v0c0,0,0,0,0,0c0,0.1,0,0.2,0,0.3
			c0,0,0,0.1,0,0.1c0,0,0,0.1,0,0.1c0,0.1,0,0.2-0.1,0.3l1.8,0.8l1.3,1.1c0,0,0,0,0,0c0,0,0,0,0,0c0.1,0.2,0.5,0.8,0.8,1.4l0.1,0.1
			l0.5,0.9c0,0,0.1,0,0.1,0c0,0,0,0,0,0c0,0,0.1,0,0.1,0c0,0,0,0,0,0c0,0,0.1,0,0.1,0c0,0,0,0,0,0c0,0,0.1,0,0.1,0c0,0,0,0,0,0
			l0.9,0.1l1.5-0.4l0.7-0.2l3.3-0.2c0,0,1.7-2.1,1-3.7c0,0-0.8-1.1,0.2-1.3c0,0,0.2-0.2,0.3-0.6C227.1,57.1,227.1,56.8,226.8,56.5z"
			/>
		<path class="st2" d="M229.9,153.7l-2.8-0.4l-2.4,1.1l-0.3,1l-0.5,0.8l-0.6,1.3l0.9,1.4l0.5,1l-1.6,1.7c-1.1,0.6-0.9,2.2-0.9,2.2
			c-1.1,0.7-0.6,3.1-0.6,3.1c-1,0.6-1.3,1.6-1.3,1.6v1.2c-0.9,0.2-1.1,1.8-1.1,1.8c0,1.9-0.9,2.1-0.9,2.1c-1,0.7-0.9,2-0.9,2
			l0.5,2.1c0,1.1-2.3,1-2.3,1c-0.3,1-2.3,1.3-2.3,1.3c0.3-0.8-0.5-1.6-0.5-1.6c0.1-0.8-0.6-0.8-0.6-0.8l-1.5-0.8l-1.4-0.7
			c0.3-0.8-1.1-1.9-1.1-1.9c0-1.7-1.5-2.7-1.5-2.7c-1.3,0-2.5,0.6-2.5,0.6l-0.6-0.7c-0.6-1-3.5-1.7-3.5-1.7
			c-2.5-0.2-2.1-1.9-2.1-1.9c0-2.5-1.6-4.1-1.6-4.1s-1.4,1-2.1,1.6l-1.8,0.1c0,0-1.6,1.1-2.3,2.4l-3.3,1.9c0,0-0.8,0.8-0.8,1.7
			l-0.4,1.2c0,0,1.4,0.8-0.8,1.7l-0.3,1.3l-1.3,0.6c0,0,0.8,0.4,0.8,1.4v2.3l-0.3,1.7c0,0-0.9,0.5-0.6,2.4c0,0,0.5,1,0,1.7l-0.1,2
			h-1.1c0,0-1.3,1.8-2.1,2.6c0,0-1.1,0.7-0.3,2c0,0-0.9,1.6,0.4,2.7c0,0-0.5,0.8,1,2c0,0,1.4,1,1.1,2.4c0,0,0,0,0,0c0,0,0,0.1,0,0.2
			c0,0,0,0,0,0c0,0,0,0,0,0.1l0,0c0,0,0,0.1,0,0.1c0,0,0,0,0,0.1c0,0,0,0,0,0c0,0,0,0,0,0c0,0,0,0,0,0c0,0,0,0,0,0c0,0,0,0.1,0,0.1
			c0,0,0,0,0,0c0,0.1,0,0.1,0,0.2c0,0,0,0,0,0v0c0,0,0,0.1,0,0.1c0,0,0,0,0,0.1v0c0.1,0.6,0.4,1.4,1.1,2.3c0,0,2.6,0.6,2.6,2.3
			l-0.6,1.6l0.1,1.6c0,0-0.6,0.6-0.5,1.9l-2.8,0.6l-1,1c0,0-1.4,0.2-1.8,1.1l-2.1-0.2c0,0,0.5,1.1,0,2c0,0-1.3,2-2.6,3.5
			c0,0,0.3,1.6-0.4,2.6c0,0-1.6,2-0.3,4.1c0,0,1,2.9,1,4.1c0,0-0.8,1.6,0.5,2.7c0,0,1.6,1.8,1.5,3c0,0-2,0.7-2.6,0.7
			c0,0,0.3,1.9-0.1,2.5c0,0-0.4,0.8,0.5,1.3c0,0,0.8,0.8,1.9,0.8c0,0,1.8,0,0.8,2c0,0-2,1,0.6,2.5c0,0,0.6,0,0.1,1.1
			c0,0,0.4,0.7,0.4,1.3c0,0,0.6,0.2,0.9-0.4c0,0,1.1,1.1,1.9,1.1c0,0,1.8-0.4,1.8,1.2c0,0,0.9,0.2,1.6-0.2l1.6-0.4
			c0-0.4-0.1-0.9-0.2-1.4c0-0.3-0.1-0.5-0.2-0.8c0,0-0.3-1,0.3-2.9c0,0-0.1-2.8,0.6-3.7c0,0,1.3-2.7,1.8-4.1c0,0,0.7-2.5,1-3.1
			c0,0,0.8-3.1,1.2-4.1c0,0,1.7-5.3,3.4-7.5c0,0,0.8-1.1,1.1-3.3c0,0,1.1-4.1,7.3-6.4c0,0,4-2.5,4.9-4.5l-0.1-1.1
			c0,0,1.8-0.8,1.2-2.6c0,0-1.4-2.5,2.7-4.4c0,0,2.1-1.8,3.1-4.2c0,0,1.4-2.6,2.7-3.1c0,0,0.3-0.9,0.3-1.7c0,0,2.2-9.1,5.9-8.4
			c0,0,2.3-1.8,1.7-2.5c0,0-1.2-0.5-1.3-1.8c0,0,1.3-1.4,0.3-3.1c0,0-0.5-0.7,0-2c0,0,1.2,0.2,0.9-2.9c0,0,0.5-3,2.9-4.6
			c0,0,0.8,0,1-3c0,0,0.5-0.8,0.7-4.5c0,0,0.5-0.8,1-2L229.9,153.7z"/>
		<path class="st2" d="M248.2,83.7c-2.8,0.5-4.4-0.7-4.4-0.7c-3.1-2-5-2-5-2c0.1,2.5-2.1,2.5-2.1,2.5c0.9,1.3,0.4,1.6,0.4,1.6
			c-1.4,0.2-4.9-2.3-4.9-2.3c-2.5,0-4-1.1-4-1.1c-1.3,0.5-2.6-0.1-2.6-0.1s-0.5,1-0.5,2.2l-0.8,1.3l-2.1,1.7l-1,1V90l-1.5,0.6
			l-1.1,1.7l0.2,0.6l0.3,1.1l-0.4,1.9l-1.3-0.5l-0.9-1.3v-1l-1.3,1.9l-1.8,1.1l-0.6,2l2.6,2.3l2,1.2l-0.4,1.8l-0.9,1.2l-2,1.2
			l-0.1,1.9l-1-0.5c0,0,0.3,0.8,0.1,1.6c0,0-0.8,0.8-0.8,1.9c0,0,0.6,0.2,0.6,1.3l0.3,4.2l-1.3,1l0.3,1.7l-0.6,1.3l-0.5,3.2
			l-1.1,1.3c0,0,0.3,1.6-0.3,1.9c0,0-2.5,1.4,0.1,2.9c0,0,0.6,1.3,0.5,2.5c0,0,2.3,0.5,0.8,2.3c0,0-1.1,1.3-1,3.2c0,0,0.1,2-0.5,2.7
			c0,0-2.9,1.3-3.5,2.1c0,0-1.5-0.8-2,0.4l0.5,0.8l-0.5,1.4c0,0,0.8,1.1-1.1,2l-1.5,0.5h-3.4l-0.3,0.7c0,0,0.4,0.8-0.8,1.6
			c0,0-1.8,0.6,0.1,1.8l-0.9,1.2l-1.1,0.6l-1.2,0.4l0,0l1,1.4l0,0.3l-0.2,1.7c0,0-2.8,0.2-2.8,2.4c0,0,0.6,1.3,3.1,1.3l1.1,1.6
			l0.8,0.4l-0.6,1c0,0,0.2,0.2,0.5,0.5c0.5,0.7,1.2,1.9,1.2,3.5c0,0-0.4,1.7,2.1,1.9c0,0,2.9,0.7,3.5,1.7l0.6,0.7
			c0,0,1.3-0.6,2.5-0.6c0,0,1.5,1.1,1.5,2.7c0,0,1.4,1.1,1.1,1.9l1.4,0.7l1.5,0.8c0,0,0.8,0,0.6,0.8c0,0,0.8,0.7,0.5,1.6
			c0,0,2-0.4,2.3-1.3c0,0,2.3,0.1,2.3-1l-0.5-2.1c0,0-0.1-1.3,0.9-2c0,0,0.9-0.2,0.9-2.1c0,0,0.3-1.6,1.1-1.8v-1.2
			c0,0,0.3-1,1.3-1.6c0,0-0.5-2.4,0.6-3.1c0,0-0.3-1.6,0.9-2.2l1.6-1.7l-0.5-1l-0.9-1.4l0.6-1.3l0.5-0.8l0.3-1l2.4-1.1l2.8,0.4
			l0.8,0.5c0.1-0.2,0.2-0.4,0.3-0.6c0.4-1,0.7-2.2,0.7-3.4c0,0-0.3-2.8-0.1-4.4c0,0,1.3-2.3,1.4-6.1c0,0,0-1.4,1.3-4.6
			c0,0,0.4-1.2-0.2-3.2c0,0,2.3-2.3,1.6-5.4c0,0,0-2.9,1.4-5.4c0,0,1.6-2,1.5-6.4l-0.5-0.2c0,0-0.1-3,2.1-4.3l0.3,0.8
			c0,0,1.3-1.4,0.1-3.2c0,0-3.4-2.6-0.8-5.4c0,0,3.2-2.2,2.3-6.2c0,0-0.8-2.2,2.3-3.3c0,0,0.8-0.5,1.4-2c0,0,2.5-0.3,2.8-3.2
			c0,0-0.1-1.4,1.4-2.1l0.4-2.9c0,0,0-0.1,0.1-0.2L248.2,83.7z"/>
		<path class="st2" d="M186.3,257.1c0,0-0.3-1.7-0.1-5.3c0,0,0.4-1.5,0.2-3.9l-1.6,0.4c-0.8,0.5-1.6,0.2-1.6,0.2
			c0-1.6-1.8-1.2-1.8-1.2c-0.8,0-1.9-1.1-1.9-1.1c-0.3,0.6-0.9,0.4-0.9,0.4c0-0.6-0.4-1.3-0.4-1.3c0.5-1.1-0.1-1.1-0.1-1.1
			c-2.6-1.6-0.6-2.5-0.6-2.5c1-2-0.8-2-0.8-2c-1.1,0-1.9-0.8-1.9-0.8c-0.9-0.5-0.5-1.3-0.5-1.3c0.4-0.6,0.1-2.5,0.1-2.5
			c0.6,0,2.6-0.7,2.6-0.7c0.1-1.2-1.5-3-1.5-3c-1.3-1.2-0.5-2.7-0.5-2.7c0-1.2-1-4.1-1-4.1c-1.4-2,0.3-4.1,0.3-4.1
			c0.6-1.1,0.4-2.6,0.4-2.6c1.4-1.4,2.6-3.5,2.6-3.5c0.5-1,0-2,0-2l2.1,0.2c0.4-0.8,1.8-1.1,1.8-1.1l1-1l2.8-0.6
			c-0.1-1.3,0.5-1.9,0.5-1.9l-0.1-1.6l0.6-1.6c0-1.7-2.6-2.3-2.6-2.3c-0.1-0.1-0.2-0.2-0.2-0.3c0,0,0,0-0.1-0.1
			c-0.1-0.1-0.1-0.2-0.2-0.3c0,0,0,0,0,0c-0.1-0.1-0.1-0.2-0.2-0.3c0,0,0,0,0-0.1c0-0.1-0.1-0.2-0.1-0.3c0,0,0,0,0,0
			c0-0.1-0.1-0.2-0.1-0.2c0,0,0,0,0-0.1c0-0.1-0.1-0.2-0.1-0.2c0,0,0,0,0,0c0,0,0,0,0-0.1c0,0,0-0.1,0-0.1c0,0,0,0,0-0.1
			c0-0.1,0-0.1,0-0.2c0,0,0-0.1,0-0.1c0,0,0-0.1,0-0.1c0-0.1,0-0.2,0-0.3c0,0,0,0,0,0l-2.1-1.2c-1.6-0.2-1.9,1.7-1.9,1.7
			c-0.9,1.9-2.1,0.4-2.1,0.4c-0.1-1.3-3.3-2-3.3-2c-1.5-1.7-2-0.2-2-0.2c-1.1,1.7-3,0.7-3,0.7c-0.6-1.7-4.1-0.2-4.1-0.2
			c-3.4,0.1-3.4,2.5-3.4,2.5c-1.5,1.1-5.9,0.8-5.9,0.8c-2-0.4-1.9,2.4-1.9,2.4l-0.8,3.6c0.8,1.8-0.1,3.1-0.1,3.1l-0.5,1.9
			c-1.4,1.1-0.4,3.3-0.4,3.3c-1.1,1.3,0.3,4.8,0.3,4.8c0.5,1-0.8,3.2-0.8,3.2l-1.6,1.3l-0.3,1.3l1.5,2.1l1.2,0.4l0.8-0.1l0.6,0.4
			c0,0,1.4,1.3-0.8,1c0,0,0.2,0.6,1,0.6c0,0-1,0.9,0.9,1.5c0,0,2.3,0.8,3.5,1.8c0,0,0.7,0.9,2.7,1.1c0,0,3.8,3.8,5.2,5.5
			c0,0,2,2,2,4.5c0,0-0.4,1.4,2.2,3.6c0,0,0.8,2.2,0.9,3.5c0,0,0.3,2.1,1.7,4.7c0,0,0.3,1.3-0.4,2.2c0,0-0.4,0.5,1,1.7
			c0,0,0,0.6-1.3,0.5l-0.3,1.3c0,0-1.1,0.4-0.1,1.9l0.2,1.1c0,0,1.3,1,1.3,2.5c0,0-1.8,2.3,0.7,3.7c0,0,2.3,1,1.7-1.1
			c0,0,0.2-1.5,1.9-0.7c0,0,4.4,0.2,6.5,3.1c0,0,0.3,1.2,1.6,0.6c0,0,0-0.8-1.1-1.9c0,0-2-3.2-0.3-5.6c0,0,2-0.2,3.2-2.1
			c0,0,1.4-1.1,0.3-3.5C186.6,261.4,187.7,259.9,186.3,257.1z"/>
		<path class="st2" d="M166.7,171l-0.1-0.8c-1.5,1.9-3,0.1-3,0.1c-0.7-1.1-1.8-0.2-1.8-0.2c0,1.6-2.2,1.3-2.2,1.3l-1.7-0.6
			c-0.8-1-0.2-2.2-0.2-2.2l-1-2.1c0.3-1,0.2-1.4,0.2-1.4c0-1.6,1-1.6,1-1.6c0.5-2.1-1.3-1.8-1.3-1.8c-0.7-0.6-2-3.3-2-3.3
			c0-0.8-3.3-1.4-3.3-1.4l-5.2,0.2c-1.3-0.2-4.9,1-4.9,1l0.2,0.6l-1.5,0.6l-2.8,3l-2,0.2c0,1-1.8,3-1.8,3c-1.2,0.2-2.7-0.3-2.7-0.3
			l-2-1l-1.4-0.6c-0.2,0.2-0.8,1-1.5,1c0,0-0.5,1,1.3,1c0,0,0.2,1.1-0.7,1.3c0,0-1.7,0.6-1.1,2.8l-0.8,0.2c0,0,0.1,2.7-0.4,3.1
			l-0.3,0.5c0,0-0.1,0.9,0.4,1.3c0,0-0.9-0.2-1.4,1c0,0-0.5,2.1,1.4,1c0,0-0.3,2.4,1.7,2.4c0,0-1.2,0.6-2.7,0.4c0,0-1.3,0.2-2.1,4.1
			l1.1,0.2l0.4,0.1c0,0-0.3,0.9,1.2,1.4c0,0,0.9,0.6,2.4,0.6c0,0-0.2,2,1,2.9c0,0,2.8,1.8,3.3,4.4c0,0,0.4,1.4,0.4,2.1
			c0,0,0,0.2,0.1,0.4l1,0.1l1.5-0.2l0.6-0.1l2.5,1.1l1.5,0.8l1.5-1l2.3,0.8l2.7-0.2l1.3-1.3l1.7-1l1.3-0.2c0,0,2.2-2.4,1.8-4.3
			l1-0.5c0,0,3.3-4,5.4-4c0,0-0.7-1.1,2.3-2.5c0,0,3.2-4.6,4-7.2l3.5-2.7l-1-0.8L166.7,171z"/>
		<path class="st2" d="M196.2,162.3l-1.1-1.6c-2.5,0-3.1-1.3-3.1-1.3c0-2.1,2.8-2.4,2.8-2.4l0.2-1.7l0-0.3l-1-1.4l0,0l-1.9-1.6
			c-1.2-0.4-2.5-0.4-3.7-0.2c-0.1,0-0.2,0-0.3,0.1c0,0-0.1,0-0.1,0c-0.1,0-0.2,0-0.3,0.1c0,0-0.1,0-0.1,0c-0.1,0-0.2,0.1-0.3,0.1
			c0,0-0.1,0-0.1,0c-0.1,0-0.2,0.1-0.3,0.1c0,0-0.1,0-0.1,0c-0.1,0-0.2,0.1-0.2,0.1c0,0-0.1,0-0.1,0c-0.1,0-0.2,0.1-0.3,0.1
			c0,0,0,0-0.1,0c0,0,0,0,0,0c-0.1,0-0.1,0.1-0.2,0.1c0,0-0.1,0-0.1,0c-0.1,0-0.2,0.1-0.3,0.1c0,0-0.1,0-0.1,0
			c-0.1,0-0.1,0.1-0.2,0.1c0,0-0.1,0-0.1,0.1c-0.1,0-0.1,0.1-0.2,0.1c0,0,0,0-0.1,0c0,0,0,0,0,0c-0.1,0-0.2,0.1-0.3,0.1
			c0,0-0.1,0-0.1,0c-0.1,0-0.1,0.1-0.2,0.1c0,0,0,0,0,0c0,0,0,0-0.1,0c-0.1,0-0.2,0.1-0.2,0.1c0,0-0.1,0-0.1,0c0,0-0.1,0.1-0.1,0.1
			c0,0,0,0,0,0c0,0,0,0,0,0c0,0-0.1,0.1-0.1,0.1c0,0,0,0,0,0c0,0,0,0,0,0c-0.1,0-0.1,0.1-0.2,0.1c0,0-0.1,0-0.1,0c0,0-0.1,0-0.1,0.1
			c0,0,0,0-0.1,0c0,0,0,0,0,0c0,0-0.1,0.1-0.1,0.1c0,0,0,0,0,0c0,0,0,0,0,0c0,0-0.1,0-0.1,0.1c0,0,0,0,0,0c0,0,0,0,0,0
			c0,0,0,0-0.1,0.1c0,0,0,0,0,0c0,0,0,0-0.1,0c0,0,0,0,0,0c0,0,0,0,0,0c0,0,0,0,0,0c0,0,0,0,0,0c0,0,0,0,0,0c-0.1,0-0.1,0-0.2,0
			c0,0-0.1,0-0.1,0c0,0-0.1,0-0.1,0c0,0-0.1,0-0.1,0c0,0,0,0,0,0c0,0-0.1,0-0.1,0.1c0,0,0,0,0,0c0,0-0.1,0-0.1,0.1c0,0,0,0,0,0
			c0,0-0.1,0.1-0.1,0.1c0,0,0,0,0,0c0,0-0.1,0.1-0.1,0.1c0,0,0,0,0,0c0,0-0.1,0.1-0.1,0.1c0,0,0,0,0,0c-1,0.9-1.5,2.5-1.5,2.5
			c-0.8,1.8-3.2,2.9-3.2,2.9l-2.2,1.1l-1.8,1.8l-1.3,1.3c-1.2,0-1.5,1.6-1.5,1.6c-0.2-1-2.7-0.8-2.7-0.8c-0.7,0-1.5,1-1.5,1l0.5,1.6
			l0.2,1.3l0.2,1l0.1,0.8l-1.2,1.6l1,0.8l-3.5,2.7c-0.8,2.5-4,7.2-4,7.2c-3,1.4-2.3,2.5-2.3,2.5c-2,0-5.4,4-5.4,4l-1,0.5
			c0.3,1.9-1.8,4.3-1.8,4.3l-1.3,0.2l-1.7,1l-1.3,1.3l-2.7,0.2l-2.3-0.8l-1.5,1l-1.5-0.8l-2.5-1.1l-2.2,0.3l-1-0.1
			c0.1,0.6,0.4,1.7,0.6,2.4c0,0,0.3,1.7,1.3,2.1c0,0,0.1,1.9,0.9,3.2c0,0,0.5,2.3,0.3,2.7c0,0,2.7,3.9,3.3,6.2l0.4,0.4l0.1-1.6
			l0.8,2.2l-0.8-0.1c0,0-0.3,1.8-0.8,2.3c0,0,0.1,1.8,1.3,2.9c0,0,2.2,2.1,2.8,2.9c0,0,4.5,4.5,1.8,2.5c0,0-3.8-4.1-4-4.1
			c0,0-0.3,0.8,1.7,2.9l4.2,4.5l3.5,2.2c0,0,1.2,1,1.5-0.5l0.5,0.2l0.1-0.3l-1.2-1.7l0.3-1.3l1.6-1.3c0,0,1.3-2.3,0.8-3.2
			c0,0-1.4-3.5-0.3-4.8c0,0-1-2.3,0.4-3.3l0.5-1.9c0,0,0.9-1.3,0.1-3.1l0.8-3.6c0,0-0.1-2.7,1.9-2.4c0,0,4.4,0.2,5.9-0.8
			c0,0,0-2.4,3.4-2.5c0,0,3.5-1.4,4.1,0.2c0,0,1.9,1,3-0.7c0,0,0.5-1.4,2,0.2c0,0,3.1,0.7,3.3,2c0,0,1.3,1.6,2.1-0.4
			c0,0,0.3-1.9,1.9-1.7l2.1,1.2v0c0-0.3,0-0.5,0-0.5c0.3-1.4-1.1-2.4-1.1-2.4c-1.5-1.2-1-2-1-2c-1.3-1.2-0.4-2.7-0.4-2.7
			c-0.9-1.3,0.3-2,0.3-2c0.9-0.8,2.1-2.6,2.1-2.6h1.1l0.1-2c0.5-0.7,0-1.7,0-1.7c-0.3-1.9,0.6-2.4,0.6-2.4l0.3-1.7v-2.3
			c0-1.1-0.8-1.4-0.8-1.4l1.3-0.6l0.3-1.3c2.1-0.8,0.8-1.7,0.8-1.7l0.4-1.2c0-0.8,0.8-1.7,0.8-1.7l3.3-1.9c0.6-1.3,2.3-2.4,2.3-2.4
			l1.8-0.1c0.8-0.6,2.1-1.6,2.1-1.6l0.6-1L196.2,162.3z"/>
		<path class="st2" d="M188.5,151.5c0,0-2.8-0.8-5.7-0.3c0,0-3.2,0.3-3.2-2.2c0,0,0.2-2.1-1-2.5l-0.2-1.8c0,0,0.8-1,0.8-1.8
			c0,0,1.2-0.8-1.3-1.6l-2.3-0.3l-1-0.6h-1.7l-1.2,3.5l-1.5-0.5h-3.3l-1.5-0.5c0,0,0.7-1.1-0.3-1.1l-2.3,1.3l-2.2-0.5l-2-0.8
			c0,0-2.8,0-2.8-2.1c0,0-0.7-1.4-4.5,0.2c0,0-2.3-0.5-7.4,2.2l-2,0.3l-0.5,2.4l-1.5-0.3l-0.7,1.6l-1.3,1.4h-1.5l-1.3,1.4h-3.3
			l-3.5-0.1c0,0.1-0.1,0.1-0.2,0.2c0,0-0.7,0.7,0.7,1c0,0,0.5,1.1-0.4,1.7c-0.1,0.1-0.2,0.1-0.4,0.2c0,0-1.3,1.4,0.6,1.8
			c0,0-0.8,0.6-0.6,1.6c0,0,0.8,0.9,0.5,1.4c0,0,0.6,0.2,0.6,1.7c0,0-1.5,3.2,0.8,3.4c0,0,0.2,0.5-1.2,0.3c0,0-1.9,0.1-0.9-3.3
			c0,0-0.6,0.9-0.8,1.5c0,0-0.8,0.1-0.2,1.1c0,0-1,1,1.2,1.9c0,0,0.5,0.7-0.8,0.3c0,0,0,0,0,0.1l1.4,0.6l2,1c0,0,1.5,0.5,2.7,0.3
			c0,0,1.8-2.1,1.8-3l2-0.2l2.8-3l1.5-0.6l-0.2-0.6c0,0,3.5-1.1,4.9-1l5.2-0.2c0,0,3.3,0.6,3.3,1.4c0,0,1.3,2.7,2,3.3
			c0,0,1.8-0.3,1.3,1.8c0,0-1,0-1,1.6c0,0,0.2,0.5-0.2,1.4l1,2.1c0,0-0.7,1.3,0.2,2.2l1.7,0.6c0,0,2.2,0.3,2.2-1.3
			c0,0,1.2-1,1.8,0.2c0,0,1.6,1.8,3-0.1l-0.2-1l-0.2-1.3l-0.5-1.6c0,0,0.8-1,1.5-1c0,0,2.5-0.2,2.7,0.8c0,0,0.3-1.6,1.5-1.6l1.3-1.3
			l1.8-1.8l2.2-1.1c0,0,2.3-1.1,3.2-2.9c0,0,0.5-1.6,1.5-2.5c0.3-0.3,0.7-0.5,1.2-0.5c0,0,2.8-2.1,5.9-2.7L188.5,151.5z"/>
		<path class="st2" d="M171.5,138.8l-0.5,1.1h-1.7l-2.3,0.5c-1.8-1-1.7-2.9-1.7-2.9c1.8-3,0-3.3,0-3.3l0.2-1.8
			c0.8,0,1.5-0.5,1.5-0.5c0.7-1.4-1-3.3-1-3.3c-0.4-0.4-0.7-0.8-1-1.2c0-0.1-0.1-0.1-0.1-0.2c0,0,0,0,0-0.1c0,0,0-0.1-0.1-0.1
			c0,0,0,0,0-0.1c0,0,0-0.1-0.1-0.1c0,0,0,0,0,0c0,0,0-0.1-0.1-0.1c0,0,0,0,0,0c-0.3-0.6-0.4-1.1-0.5-1.3c0,0,0,0,0,0
			c0,0,0-0.1,0-0.1c-1.5-1-3.5-0.3-3.5-0.3l-0.5-0.1l-3.5-0.5l-5.2-1c-3.1-1-4.8-0.1-5.6,0.5c0.6,0.2,1.9,0.6,0.7,1.2
			c0,0-0.1,0-0.1,0c0,0-2.3,0.2-3.7,0.1c0,0-2.3,0.9-4.4,0c0,0-3.3-0.4-5.1,1.4c0,0-1.4,0.9-2,2.9l0.8,0.5c0,0-0.8,0.4-1,1.1
			L131,134c0,0-2.1-0.5-3.9,5l-0.3,0.7c0,0-0.3,1.3,0.2,2.5c0,0,0.9,1.6,0.3,1.8c0,0-0.6,0.9,0.3,1.8c0,0,0.9,0.2-0.1,0.8
			c0,0,0,0.6,0.4,0.6c0,0,0.7,0.3-0.3,0.8c0,0,0.6,0.4,0.3,0.8l3.5,0.1h3.3l1.3-1.4h1.5l1.3-1.4l0.7-1.6l1.5,0.3l0.5-2.4l2-0.3
			c5-2.7,7.4-2.2,7.4-2.2c3.9-1.6,4.5-0.2,4.5-0.2c0,2.1,2.8,2.1,2.8,2.1l2,0.8l2.2,0.5l2.3-1.3c1,0,0.3,1.1,0.3,1.1l1.5,0.5h1.8
			h1.5l1.5,0.5l1.2-3.5L171.5,138.8z"/>
		<polygon class="st2" points="149.9,150 149.7,151.1 151.2,152.6 152.1,154.7 155.1,155 156.3,153.9 160.6,151.6 160.6,150.5 
			160.3,149.1 158.4,148.8 156.4,149.1 154.9,149.1 152.4,149.1 149.9,149.4 		"/>
		<path class="st2" d="M166.3,79.1l1.5,2.3l1.5,1.3l1.9,0.4l3.6,2.3c1.9,0.2,3.6,1.1,3.6,1.1c0.3,1.4,2.8,0.7,2.8,0.7
			c1.1-0.7,2.1,0.1,2.1,0.1c2.1,1.7,2.4-1.8,2.4-1.8c0-1.6,0.9-1.7,0.9-1.7L190,84l2,0.7l1.1,1c0.1,1.8,2,1.3,2,1.3
			c0.5-1,2.4-1.9,2.4-1.9c1.1,0.5,3-1,3-1c0.3-0.8,2.1-1.9,2.1-1.9c0.9,0.4,2.5-0.8,2.5-0.8c0.1-1,0.9-1.6,0.9-1.6
			c1.1-1.3,1.8,0,1.8,0c0.4,0.5,0.9,0.5,0.9,0.5c0-0.7,1.3-1.9,1.3-1.9c-0.3-0.7,0.3-1.7,0.3-1.7l1.2-2.3c0,0,0,0,0,0
			c-0.2-0.8-1-1.7-1.3-2c0,0,0,0,0,0c0,0-0.1-0.1-0.1-0.1c0,0,0,0,0,0c0,0,0,0,0,0c-1.1-0.8-1.8-2-1.8-2l-2.5,0.1l-2.1,0.2l-2.6-0.2
			l-1.6,0.7l-1.3,0.7l-1.9-1.4c0-1.6,1.1-1.4,1.1-1.4c1.8-1-0.8-2.1-0.8-2.1l1.1-2c0.5-0.7-1.9-1.9-1.9-1.9
			c-1.4-0.6-2.4-2.5-2.4-2.5l-3.6-1c-0.8-0.8-0.4-2.4-0.4-2.4c-1.3-1-0.1-1.7-0.1-1.7l-2.3-0.8l0-0.1l-0.4-0.1l-1.4-0.7l-1.9-0.4
			l-1.1-0.2c-0.6,0.1-1.3,0.8-1.7,2.8c0,0-0.6,1.1-1.7,1.5c0,0-0.7,0.3,0.5,1.6c0,0-3.5-0.6-5.6,1.4c0,0-1.8,2.1-3.3,3.1
			c0,0-1.1,1.3-1.2,2.8c0,0-1,2-1.5,2.7c0,0-0.6,1.6-0.7,2.7c0,0-0.5,1.5-1.5,2.2l-0.5,1l-0.8,0.4l-0.6,0.7l-0.3,0.4l1.3,1.2
			L166.3,79.1z"/>
		<path class="st2" d="M224,80c-0.9,0-2.5,1-2.5,1c-1.8,0-3-1.6-3-1.6c-1.8,0-2-1.1-2-1.1c0.3-1-0.8-3-0.8-3l-0.9,0.5l-2,0.5
			l-2.1,0.1l0.5-1c0.2-0.3,0.3-0.6,0.2-1l-1.2,2.3c0,0-0.5,1-0.3,1.7c0,0-1.3,1.2-1.3,1.9c0,0-0.5,0-0.9-0.5c0,0-0.6-1.3-1.8,0
			c0,0-0.8,0.6-0.9,1.6c0,0-1.6,1.2-2.5,0.8c0,0-1.9,1.1-2.1,1.9c0,0-1.9,1.4-3,1c0,0-1.9,1-2.4,1.9c0,0-1.9,0.5-2-1.3l-1.1-1
			l-2-0.7l-3.3-0.2c0,0-0.9,0.1-0.9,1.7c0,0-0.3,3.5-2.4,1.8c0,0-1-0.8-2.1-0.1c0,0-2.5,0.7-2.8-0.7c0,0-1.8-0.8-3.6-1.1l-3.6-2.3
			l-1.9-0.4l-1.5-1.3l-1.5-2.3l-1.5-1.7l-1.3-1.2l-1.5,2.2l0.7,1.4l-0.8-0.2c0,0-0.5-0.3-0.7-0.1c0,0-0.2,0.7-1.3,2l-0.3,1.2
			c0,0-1.7,0.5-0.8,1.7c0,0-0.8,0.2-0.4,1.1c0,0-0.7,0.1-0.7,1.7c0,0-0.3,1.8-2.7,1.4c0,0-1.3-0.5-1.3,0.9c0,0,3.7,0,0.6,4.7
			c0,0-0.9,0.2-0.6,1.4c0.7,0.5,1.5,1.3,1.7,2.2l1.8,1.6l0.5,1.8l2,2.7l2.7,1.9v2.1l1.7,3.2l-1.4-2.6c0.3-0.4,1-0.8,2.2-0.2
			c0,0,3.2,2.4,5.9,2.1c0,0,5.7,0.2,6.2-1.8c0,0,2-2.7,0.2-3.5c0,0,5.2,0.3,6-0.6c0,0,4.7-3.7,8.2-3.2c0,0,2.5-3.2,5.7-3.3
			c0,0,0.8-3.5,5.4-3c0,0,0.8-1.4,3.9-1.1c0,0,2.8-2.5,4-0.3c0,0,1.5,0.3,1.3-1.8c0,0,1.3-1,1.5,0.5c0,0,5-1.1,5.2,0.8l0,0.1
			l-0.2-0.6l1.1-1.7l1.5-0.6v-1v-1.4l1-1l2.1-1.7l0.8-1.3c0-1.2,0.5-2.2,0.5-2.2C225.5,80.3,224,80,224,80z"/>
		<path class="st2" d="M213.4,92c-0.2-1.4-1.5-0.5-1.5-0.5c0.2,2.1-1.3,1.8-1.3,1.8c-1.2-2.2-4,0.3-4,0.3c-3-0.3-3.9,1.1-3.9,1.1
			c-4.5-0.5-5.4,3-5.4,3c-3.2,0.2-5.7,3.3-5.7,3.3c-3.5-0.5-8.2,3.2-8.2,3.2c-0.8,1-6,0.6-6,0.6c1.8,0.8-0.2,3.5-0.2,3.5
			c-0.5,1.9-6.2,1.8-6.2,1.8c-2.7,0.3-5.9-2.1-5.9-2.1c-1.2-0.6-1.9-0.2-2.2,0.2l1.4,2.6v2.9l2.3,1.4l-1.7,1.9l-0.3,2.2l0.3,2.1
			c0,0-0.7,0.5-0.7,1.3c0,0,0.8,1.1,0.8,2.1c0,0,2.7-0.2,2.7,1.1c0,0-0.9,1.5-2.8,1.5c0.3,0.4,0.6,0.9,1,1.2c0,0,1.7,1.9,1,3.3
			c0,0-0.7,0.5-1.5,0.5l-0.2,1.8c0,0,1.8,0.3,0,3.3c0,0-0.2,1.9,1.7,2.9l2.3-0.5h1.7l0.5-1.1l1.3,1.6h1.7l1,0.6l2.3,0.3
			c2.5,0.8,1.3,1.6,1.3,1.6c0,0.8-0.8,1.8-0.8,1.8l0.2,1.8c1.2,0.5,1,2.5,1,2.5c0,2.5,3.2,2.2,3.2,2.2c2.8-0.5,5.7,0.3,5.7,0.3
			l0,0.3c1.2-0.2,2.5-0.2,3.7,0.2l1.9,1.6l1.2-0.4l1.1-0.6l0.9-1.2c-1.9-1.2-0.1-1.8-0.1-1.8c1.1-0.7,0.8-1.6,0.8-1.6l0.3-0.7h3.4
			l1.5-0.5c1.9-1,1.1-2,1.1-2l0.5-1.4l-0.5-0.8c0.5-1.2,2-0.4,2-0.4c0.6-0.8,3.5-2.1,3.5-2.1c0.6-0.7,0.5-2.7,0.5-2.7
			c-0.1-1.9,1-3.2,1-3.2c1.5-1.8-0.8-2.3-0.8-2.3c0.1-1.2-0.5-2.5-0.5-2.5c-2.6-1.4-0.1-2.9-0.1-2.9c0.5-0.4,0.3-1.9,0.3-1.9
			l1.1-1.3l0.5-3.2l0.6-1.3l-0.3-1.7l1.3-1l-0.3-4.2c0-1.1-0.6-1.3-0.6-1.3c0-1.1,0.8-1.9,0.8-1.9c0.1-0.7-0.1-1.6-0.1-1.6l1,0.5
			l0.1-1.9l2-1.2l0.9-1.2l0.4-1.8l-2-1.2l-2.6-2.3l0.6-2l1.8-1.1l1.3-1.9v1l0.9,1.3l1.3,0.5l0.4-1.9l-0.3-1.1l0-0.1
			C218.4,90.9,213.4,92,213.4,92z"/>
		<path class="st2" d="M165.2,124.8c0-1-0.8-2.1-0.8-2.1c0-0.8,0.7-1.3,0.7-1.3l-0.3-2.1l0.3-2.2l1.7-1.9l-2.3-1.4v-2.9l-1.4-2.6
			l-0.3-0.6v-2.1l-2.7-1.9l-2-2.7l-0.5-1.8l-1.8-1.6c-0.2-0.9-1.1-1.7-1.7-2.2c0,0.2,0.1,0.3,0.2,0.5c0,0-1.4,1.1-2.7,2.1
			c0,0-0.9,0.6-1,1.4c0,0-1.1,0.8-1.1,1.8c0,0,0.3,1.1-0.5,2.2l1.5,0.1c0,0-2.8,0.6-3.3,2.6c0,0-2.8,0.3-2.3,2.3
			c0,0-1.3-0.7-1.7,1.6c0,0-0.7,0.4,0,1.8c0,0-0.2,0.7-1,0.7l0.1,1.1c0,0-0.8,0.4-1.3,1.2c0,0-1,1.4-1.8,3l-1.1,1
			c0,0,0.4,0.6,0.8,0.7c0,0-0.9,1.4-1.8,1.8c0,0-0.3,1,0.6,1.4c0,0-0.5,0.5,0.3,0.8c0,0,3.2,0.7,4.9,0.6c0,0,1.3-0.9,2.8-0.5
			c0,0,0.1,0,0.3,0.1c0.8-0.6,2.5-1.5,5.6-0.5l5.2,1l3.5,0.5l0.5,0.1c0,0,2-0.6,3.5,0.3c0,0,0.3,1,0.9,2.1c2,0,2.8-1.5,2.8-1.5
			C167.9,124.6,165.2,124.8,165.2,124.8z"/>
		<path class="st0" d="M67.3,18.7h0.5l0.6,0.2h0.3c0,0,0.2-0.3,0.3,0c0.1,0.3,0.3,0.7,0.3,0.7v0.6c0,0,0.3-0.2,0.5,0
			c0.2,0.2,0.8,0,0.8,0s0.3,0.2,0.5,0.1c0.2-0.1,0.6,0,0.6,0s0.8-0.5,1.1-0.2c0.3,0.3,0,0.6,0,0.6S73,21,73,21.1
			c0,0.1-0.3,0.3-0.3,0.3H72h-0.3v0.3l0.1,0.3c0,0,0.1,0.2,0,0.4c-0.1,0.1-0.3,0.3-0.3,0.3s-0.1,0.2-0.1,0.4c0,0.2-0.2,0.3-0.2,0.5
			c0,0.1-0.1,0.4-0.2,0.5c0,0.1-0.1,0.4-0.2,0.5c0,0.1-0.3,0.6-0.3,0.6l-0.2,0.3c0,0,0.1-0.1,0.3,0c0.2,0.1,1.3,0,1.3,0
			s0.4-0.1,0.7,0c0.3,0.1,0.3,0,0.5,0c0.2,0,0.3-0.2,0.4-0.3c0.1,0,0.4-0.2,0.6-0.2c0.1,0,0,0.5,0,0.5l0.3,0.3v0.4H74l0.3,0.5
			l0.4-0.2c0,0,0.3-0.2,0.5-0.1c0.1,0,0.4,0,0.4,0l0.2,0.1c0,0,0.2,0.1,0,0.3c-0.2,0.2-0.4,0.4-0.4,0.4v0.4l0.5,0.5v0.4l0.4,0.6
			c0,0-0.2,0.2,0,0.2s0.1,0.3,0.2,0c0.1-0.3,0-0.7,0-0.7s0-0.4,0.2-0.5c0.3-0.1,0.3-0.1,0.3-0.1s0.5-0.2,0.6-0.3
			c0.1-0.1,0-0.2,0.3-0.3c0.3-0.1,0.4,0.1,0.6,0c0.2-0.1,0.3,0.3,0.5,0c0.2-0.3,0.2-0.3,0.2-0.3v-0.3c0,0,0-0.2,0-0.4
			c0-0.1,0-0.1,0-0.1v-0.5v-0.4c0,0-0.3,0-0.2-0.3c0-0.3,0-0.3,0-0.3l0,0c0,0-0.1-0.2,0.2-0.3c0.3-0.1,0.1,0.1,0.3-0.1
			c0.2-0.3,0.4-0.6,0.4-0.6s-0.6,0.2,0-0.2c0.6-0.4,0.2-0.2,0.6-0.4c0.4-0.2,0.9-0.6,0.9-0.6l0.6-0.6c0,0-0.3-0.3,0-0.2
			c0.3,0,0.6,0.1,0.6,0.1l0.4,0.1v0.2l0.4,0.3v0.3V23c0,0-0.2,0.2,0,0.3c0.2,0.1,0.2,0.3,0.4,0.2c0.2-0.1,0.4-0.7,0.4-0.7v-0.4
			l0.3-0.4l0.5-0.2l0.6-0.2l0.7,0l0.6,0.1l0.4,0.2l0.5,0.1h0.4l0.5-0.2l0.6-0.4l0.6-0.1c0,0,0,0.1,0,0.2c0,0.1-0.3,0.4-0.3,0.4
			l-0.6,0.5c0,0-0.3,0.4-0.4,0.5c-0.1,0.1-0.6,0.6-0.6,0.6l0,0.4c0,0,0,0.1,0,0.4c0,0.3-0.1,0.6-0.1,0.6s-0.1,0.2-0.1,0.4
			c0,0.1,0,0.2-0.1,0.5c0,0.2-0.2,0.5-0.3,0.6c-0.1,0.1-0.5,0.3-0.6,0.4c-0.1,0.1-0.6,0.5-0.6,0.5L86,27.7c0,0-0.1,0.3-0.2,0.5
			c0,0.2-0.2,0.5-0.3,0.7c-0.1,0.2-0.3,0.2-0.3,0.4c0,0.2,0,0.5-0.3,0.7c-0.3,0.1-0.9,0-0.9,0l-0.2-0.5l-0.2-0.2l-0.7,0l-0.5,0.1
			l-0.2,0.2l0,0.3c0,0,0,0.1,0,0.2c0,0.1-0.1,0.7-0.1,0.7s-0.1,0.3-0.2,0.5c-0.1,0.2-0.5,0.4-0.5,0.4l-0.6,0.3c0,0-0.1,0.2-0.2,0.4
			c-0.1,0.2-0.3,0.3-0.4,0.5c-0.1,0.2-0.4,0.4-0.5,0.5c0,0.1,0.3-0.2,0,0.1c-0.4,0.3-1,0.4-1,0.5c-0.1,0.1-0.4,0.1-0.7,0.2
			c-0.3,0.1-0.3-0.1-0.6,0c-0.3,0.1-0.6,0.2-0.6,0c-0.1-0.2-0.2-0.4-0.2-0.6c0-0.2-0.6-0.4-0.6-0.4s-0.4,0-0.5,0.2
			c0,0.1,0.2-0.1,0,0.1c-0.3,0.3-0.3,0.3-0.3,0.3l-0.4,0l-0.4,0.1L74,34.3c0,0-0.3,0.1-0.5,0.2c-0.1,0.1-0.5,0.2-0.5,0.3
			c0,0.1-0.3-0.1,0,0.1c0.3,0.3,0.1,0,0.3,0.3c0.2,0.3-0.5,0.7-0.5,0.7h-0.5H72c0,0-0.2,0.3-0.3,0.4c-0.1,0.1-0.3-0.2-0.5,0
			c-0.2,0.2,0,0.3-0.2,0.2c-0.3-0.1-0.1,0.4-0.3-0.1c-0.1-0.5-0.4-0.6-0.1-0.8c0.3-0.2,0.3-0.2,0.3-0.2s-0.4-0.4-0.7-0.4
			c-0.3,0-0.5-0.1-0.9,0c-0.4,0.1-0.7,0.1-0.9,0.2c-0.1,0-0.3,0-0.5,0c-0.2,0-1.3-0.5-1.3-0.5v-0.2L66.3,34c0,0,0-0.3-0.3-0.3
			c-0.3,0-0.4,0-0.6,0.1c-0.2,0,0.1,0-0.2,0c-0.3,0-0.5-0.1-0.5-0.1s-0.3-0.1-0.4-0.4c0-0.2-0.4-0.1,0-0.5c0.4-0.3,0,0.1,0.4-0.3
			c0.3-0.4,0.4-1,0.4-1s-0.3-0.1,0.1-0.5c0.4-0.3-0.1,0,0.4-0.3c0.5-0.3,1.1-1.3,1.2-1.5c0-0.2-0.1-0.4,0.1-0.6
			c0.2-0.2,0.8-0.7,0.8-0.7l0.3-0.7l-0.3-0.7c0,0-0.4-0.4-0.6-0.3c-0.2,0-0.9,0.1-0.9,0.1L66,26.2c0,0,0-0.4,0.3-0.6
			c0.2-0.2,0.5-0.4,0.5-0.6c0-0.2,0.3-0.4,0.5-0.3c0.2,0,0.3,0,0.5-0.2c0.2-0.2,0.1-1.1,0.1-1.1s0.1-0.1,0.3-0.2
			c0.1-0.1,0,0.2,0.1-0.1c0.1-0.4,0.1-0.7,0.1-0.7s0,0-0.3-0.1c-0.3,0-0.3,0-0.3,0s-0.4-0.5-0.6-0.5c-0.1,0-0.5-0.2-0.4-0.4
			c0.1-0.2,0.2-0.4,0.4-0.6c0.2-0.1,0.2-0.1,0.2-0.1L67,20v-0.6L67.3,18.7z"/>
		<g>
			<path class="st0" d="M19.6,85.9h-0.3H19l-0.2,0.2l-0.2,0.2l-0.1,0.2v0.2V87l-0.1,0.2v0.4v0.1h-0.2H18h-0.3c-0.1,0.3,0,0.4,0,0.4
				l0,0.3v0.3v0.2h-0.2h-0.1h-0.2V89v0.1h0.2l0.2,0.2h0.3l0,0.2h0.2c0,0,0-0.1,0.1,0c0.1,0.1,0.3,0,0.3,0v-0.2c0,0,0.1-0.1,0.2-0.1
				c0.1,0,0.2-0.1,0.2-0.1l0.1-0.1l0.1,0v0.2v0.2h0.3c0,0,0.3,0,0.3-0.1c0,0-0.2-0.1,0-0.2c0.2,0,0.2,0,0.2,0v-0.2v-0.2
				c0,0,0.1-0.1,0.2-0.1c0.1,0,0.2-0.1,0.2-0.1l0.3,0.1c0,0,0,0,0.1,0c0.1,0,0.1,0,0.1,0l0.2-0.1v-0.2c0,0,0.1,0,0.2-0.1
				c0.1-0.1,0.1-0.1,0.1-0.1v-0.3c0,0-0.1-0.1,0-0.2c0.1-0.1,0,0.3,0.1-0.1c0.1-0.4,0.3-0.5,0.1-0.6c-0.1-0.1,0.2,0.2-0.1-0.1
				c-0.3-0.3-0.4-0.5-0.6-0.6c-0.1-0.1-0.5-0.4-0.5-0.4S19.7,85.6,19.6,85.9z"/>
			<path class="st0" d="M25.7,83.1l0.4,0.6c0,0,0.5,0.5,0.7,0.8c0.2,0.3,0.3,0.5,0.5,0.7c0.2,0.2,0.2,0.4,0.6,0.5
				c0.4,0.1,0.5,0.2,0.8,0.3c0.3,0.1,0.6,0.2,0.8,0.2c0.2,0,0.2-0.2,0.5-0.2c0.2,0,0.5,0,0.7-0.1c0.2-0.1,0.2-0.3,0.3-0.4
				c0-0.1-0.6-0.7-0.4-0.9c0.1-0.2-0.2-0.1,0.1-0.2c0.3,0,0.5-0.3,0.6-0.3c0.1,0,0.3-0.1,0.3-0.1v-0.3v-0.2l-0.1-0.1
				c0,0,0.1-0.2,0.1-0.2c0.1,0.1,0.1,0.1,0.2,0.2c0.1,0.1,0.2,0.3,0.2,0.3s0,0,0.1,0.2c0.1,0.2,0.3,0.4,0.4,0.5
				c0.1,0.1,0.1,0,0.3,0.2c0.2,0.2,0.6,0,0.6,0s0-0.2-0.2-0.2c-0.2-0.1-0.5-0.2-0.5-0.2s-0.1,0-0.2-0.2c-0.1-0.1-0.1-0.1-0.1-0.1
				v-0.3v-0.2l-0.1-0.2h-0.1h-0.2h-0.2v-0.3l0-0.4c0.2-0.1,0.2,0.1,0.4,0c0.1-0.1,0.5-0.3,0.5-0.3l0.3-0.3l0.1-0.2l0-0.2l-0.1-0.5
				H33h0.2l0.2,0.3l0.4-0.1l0.6,0.1v0.2l0.1,0.6v0.5l0.4,0.4L35,83l0.2,0l0.2-0.1l0.5,0v0.1c0,0,0,0.4,0,0.4c0,0,0,0.2,0,0.2v0.2
				v0.2l0.2,0.3v0.5l0.2,0.4v0.2l0.5-0.1c0,0,0.2-0.1,0.2,0.1c0,0.2,0.1,0,0,0.2c-0.1,0.2-0.2,0.2-0.2,0.4c0,0.1-0.2,0.8-0.2,1.2
				c0.1,0.3,0.1,0.6,0.1,0.6l0.3,0.3v0.4c0,0,0,0.3,0,0.4c0,0.1,0,0.1,0,0.1l-0.4-0.2h-0.2l-0.2,0.2c0,0-0.1,0.2,0,0.3
				c0,0.1,0,0.1,0,0.1l0.2,0.3l0.1,0.3l-0.2,0.2h-0.2h-0.4h-0.1c0,0,0,0.1,0,0.3c0,0.1,0.2,0,0,0.1c-0.2,0.2-0.7,0.4-0.7,0.4
				l-0.3,0.3h-0.2l-0.5,0.2h-0.4h-0.3l0-0.4c0.2,0,0.5-0.2,0.5-0.2l0.1-0.3c0,0,0-0.1-0.1-0.2c-0.1-0.1-0.3-0.4-0.3-0.4
				s-0.4-0.4-0.5-0.4c-0.2,0-0.8-0.5-0.8-0.5s-0.1-0.4-0.7-0.4c-0.6,0-1.2,0-1.4,0c-0.2,0-1,0.1-1.1,0.1c-0.1,0-0.8,0.4-0.8,0.4
				s-0.3,0.4-0.7,0.6c-0.4,0.2-0.9,0.8-0.9,0.9c0,0.1-0.2,0.6-0.2,0.6s-0.2,0.1-0.2,0.2C26,91.8,25.7,92,25.7,92l-0.3,0.2
				c0,0-0.5,0.2-0.6,0c-0.1-0.2-0.5-0.4-0.5-0.4l-0.1-0.1v-0.3l-0.4-0.1l-0.4-0.2c0,0-0.2,0-0.2-0.2c0-0.2,0-0.6,0-0.6L22.8,90
				l-0.4-0.1c0,0-0.4-0.2-0.2-0.4c0.1-0.1-0.1-0.1,0.1-0.1c0.2,0,0.4,0,0.5,0c0.1,0,0,0,0.1,0c0.1,0,0.2,0,0.4,0c0.2,0,0,0.1,0.2,0
				c0.2-0.1,0,0.2,0.2-0.1c0.1-0.2,0-0.6,0.2-0.6c0.2,0,0.3-0.1,0.4,0c0.1,0,0.3,0.3,0.3,0.3s-0.2,0.2,0,0.2c0.2,0,0.2,0,0.2,0
				s0.1-0.2,0.2-0.3c0.1-0.1-0.1,0,0.1-0.1c0.2-0.1,0.2-0.1,0.2-0.1l-0.2-0.3l-0.4,0c0,0-0.1-0.3-0.1-0.4c0-0.1,0.1-0.5,0.1-0.5
				l-0.1-0.6l-0.1-0.3l-0.2-0.4c0,0-0.1-0.2-0.1-0.4c0.1-0.2,0.1-0.2,0.1-0.2l-0.8-0.8l-0.1-0.2c0,0,0.1-0.5,0.3-0.6
				c0.1-0.1,0.5-0.3,0.5-0.3s0.1-0.1,0.3-0.1c0.2-0.1,0.6-0.3,0.6-0.3L25.7,83.1z"/>
			<path class="st0" d="M36.3,81.5v0.3l0.1,0.3v0.2h0.3c0,0,0,0.1,0.2,0.1c0.2,0,0,0.2,0.2,0c0.2-0.2,0.2,0.1,0.2-0.2
				c0-0.3-0.1-0.4-0.2-0.4c-0.1,0-0.2-0.1-0.2-0.1l-0.1-0.2H36.3z"/>
		</g>
		<path class="st0" d="M77.9,160.3c0,0,0,0.2,0.3,0c0.3-0.2,0.4-0.3,0.5-0.2c0.1,0,0.3,0,0.3,0h0.4h0.4l0.5,0.1c0,0-0.1,0.2,0,0.3
			c0.1,0.1,0,0.3,0,0.4c0,0.1,0,0.1,0,0.1l-0.1,0.3v0.4l-0.3,0.3l-0.3,0.3h-0.2h-0.4h-0.1l-0.3,0.3c0,0-0.2,0-0.3,0
			c-0.1,0-0.3-0.2-0.3-0.3c-0.1-0.1-0.2-0.2-0.3-0.3c-0.1-0.1-0.2-0.7-0.3-0.7c-0.1,0-0.2-0.2-0.2-0.2s-0.1-0.4,0-0.5
			c0.1-0.1,0.1-0.1,0.1-0.1L77.9,160.3z"/>
		<path class="st0" d="M84.6,139.7c0,0,0.3,0.3,0,0.5c-0.3,0.2-0.5,0.4-0.5,0.4l-0.3,0.2h-0.6h-0.4v0.5v0.3c0,0,0,0.1,0,0.3
			c0,0.2-0.1,0.3-0.2,0.4c0,0.1-0.3,0.4-0.3,0.4v0.5v0.3c0,0-0.2,0.3,0,0.5c0.2,0.2,0.2,0.3,0.1,0.4c0,0.1-0.3,0.3-0.4,0.3
			c-0.1,0-0.2-0.1-0.3,0c-0.2,0.1-0.6-0.2-0.8,0c-0.1,0.2-0.5,0.3-0.5,0.3s-0.2,0.3-0.4,0.3c-0.2,0.1-0.3,0.2-0.4,0.3
			c-0.2,0-0.2-0.1-0.5,0c-0.3,0.1-0.5,0-0.5,0s0.1-0.3,0-0.4c-0.1-0.1-0.2-0.4,0-0.5c0.2-0.1,0.4-0.3,0.5-0.4c0.2,0,0.4-0.1,0.4-0.1
			c0.3-0.4,0.3-0.5,0.3-0.7c0-0.2,0-0.4,0-0.4s-0.2-0.3,0-0.4c0.3-0.1,0.3,0.1,0.5,0c0.1-0.1-0.1,0,0.1-0.1c0.2-0.2-0.2-0.6-0.1-0.9
			c0.1-0.3,0-0.8,0-0.8s-0.3-0.5,0-0.7c0.3-0.2,0.4-0.5,0.5-0.6c0.1-0.1,0.3-0.3,0.5-0.4c0.2,0,0.5,0,0.6,0c0.1,0,0.2-0.2,0.5,0
			c0.3,0.1,0,0.1,0.3,0.1c0.3,0,0.8,0.2,0.8,0.2l0.2,0l0.3,0C83.9,139.3,84.6,139.2,84.6,139.7z"/>
		<path class="st0" d="M83.8,138.1l0.3,0.5l0.6,0.5h0.6l0.5,0.4h0.3l0.3,0.5c0,0,0.1,0.4,0.2,0.5c0.1,0.1,0.3,0.4,0.3,0.4
			s0.1,0,0.2,0c0.1,0,0.4-0.2,0.4-0.2s0-0.2,0.2-0.2c0.2,0,0,0,0.2,0c0.2,0,0.2-0.1,0.5-0.1c0.3,0,0.8-0.3,0.8-0.6
			c0.1-0.3-0.1-0.8,0-1.1c0.1-0.4,0.1-1-0.5-1.2c-0.6-0.3-1.1-0.5-1.3-0.4c-0.1,0.1-1.2,0.3-1.2,0.3s-0.7,0.4-0.8,0.4
			c-0.1,0-1.3,0-1.3,0S83.8,137.7,83.8,138.1z"/>
		<path class="st0" d="M88.4,140.8c0,0,0.2,0,0.8,0.2c0.6,0.2,0.9,0,1.3,0.3c0.4,0.3,0.6,0.5,0.6,0.5s0.3-0.5,0.5-0.5
			c0.3,0,1,0.5,1.3,0.5s0.5-0.3,0.9,0c0.4,0.3,0.7,0.5,0.8,0.8c0.1,0.3,0.3,0.7,0.4,0.8c0.1,0.1,0.7,0.6,0.7,0.6s0,0.1,0,0.6
			c0,0.5-0.4,0.7-0.8,0.9c-0.4,0.2-0.6,0.2-0.8,0c-0.2-0.2-0.1-0.5-0.5-0.5c-0.4,0-0.6,0.1-0.6,0.1s0.2,0.1-0.2,0.2
			c-0.4,0-0.8-0.1-0.9,0c-0.1,0.1-0.3,0.2-0.4,0.4c-0.1,0.2-0.3,0.4-0.4,0.5c-0.1,0.1-0.3,0.2-0.6,0.3c-0.3,0.1-0.7,0.7-0.8,0.8
			c-0.1,0.2-0.3,0.6-0.3,0.6l-0.1,0.3c0,0-0.1-0.2-0.3,0c-0.3,0.2-0.8,0-0.8,0s-0.4-0.1-0.5,0.1c-0.2,0.2-0.2,0.3-0.4,0.3
			c-0.2,0-0.7-0.3-0.8-0.4c-0.1,0-0.5-0.4-0.5-0.4s0-0.2-0.5-0.3c-0.5-0.1-0.8-0.2-1-0.5c-0.2-0.3-0.2-0.4-0.3-0.5
			c-0.1,0-0.3-0.2-0.5-0.2c-0.1,0-0.4,0.1-0.4-0.2c0-0.3,0.8-1.5,1.2-1.2c0.4,0.3,0.7,0.8,0.9,1c0.2,0.1,0.4,0.1,0.5,0.2
			c0.1,0,0.3,0,0.5,0c0.2,0.1,0.3,0.1,0.5,0.1c0.3,0,0.2,0,0.5,0c0.3,0,0.8-0.3,0.8-0.5c0-0.2-0.2-0.2-0.4-0.3c-0.2,0-0.8,0-0.8,0
			s-0.7,0-0.8,0c-0.1,0-1.4-0.4-1.3-0.5c0.1-0.1,0-0.1,0-0.4c0-0.3,0-0.3,0-0.3s-0.3-0.2,0-0.4c0.3-0.2-0.5,0,0.5-0.6
			c1-0.5,1.2-1,1.3-1.2c0.1-0.2,0.1-0.4,0.4-0.4c0.3,0,0,0.4,0.3,0c0.3-0.4,0.3-0.8,0.3-0.8S88,140.5,88.4,140.8z"/>
		<path class="st0" d="M87.2,133.8l-0.3,0.3l-0.4,0.3c0,0-0.2,0.2-0.2,0.3c0,0.1,0,0.5,0,0.5l0.2,0.5c0,0,0.2,0.2,0.5,0.3
			c0.3,0,0.3,0.3,0.6,0c0.3-0.3,0.2-0.3,0.3-0.5c0.2-0.2,0.2-0.2,0.2-0.5c0-0.4,0-0.7,0-0.7S87.8,133.2,87.2,133.8z"/>
		<path class="st0" d="M82.5,147.7c0,0,0.3,0.4,0.5,0.4c0.1,0,0.5,0.3,0.6,0.3c0.1,0,0.5,0.2,0.6,0.2c0.1,0,0.5-0.3,0.6,0
			c0.1,0.3-0.1,0.4,0,0.5c0.1,0.2,0.3,0.3,0,0.4c-0.3,0.1-0.2-0.3-0.4,0c-0.3,0.3-0.2,0.2-0.6,0.3c-0.4,0.1-0.2,0.1-0.5,0.3
			c-0.3,0.1-0.2,0.2-0.7,0.3c-0.5,0.1-0.3,0-0.6,0c-0.4,0-0.6,0.4-0.6,0s-0.3-0.8,0-0.9c0.3,0,0.3-0.1,0.5-0.2
			c0.2-0.1,0.3-0.4,0.3-0.4l-0.1-0.3c0,0-0.3-0.3-0.2-0.4C81.8,148.1,82.3,147.5,82.5,147.7z"/>
		<path class="st0" d="M81.6,152l0.4,0.6c0,0,0.2,0.4,0.3,0.5c0.1,0.1,0.5,0.6,0.5,0.6s0.1,0.4,0,0.7c-0.1,0.3-0.4,0.4-0.6,0.6
			c-0.2,0.2-0.3,0.2-0.4,0.3c-0.1,0.1,0.4,0.2-0.2,0.3c-0.6,0-0.6,0.2-0.8,0c-0.3-0.2-0.6-0.5-0.6-0.5s-0.1-0.1,0-0.3
			c0.1-0.3,0.2-0.4,0.2-0.4s0.2-0.6,0.2-0.8c0-0.2,0-0.5,0-0.5s-0.7-0.1-0.5-0.6C80.3,151.9,81.4,151.7,81.6,152z"/>
		<path class="st0" d="M88.9,158.9c0,0,0.2,0.3,0.4,0.5c0.2,0.1,0.8,0.6,0.9,0.8c0.1,0.2,0.1,0.5,0.5,0.4c0.4-0.1,0.4-0.1,0.4-0.1
			s-0.1-0.6,0-0.7c0.1-0.1-0.3-0.3,0-0.4c0.3-0.1,0.3-0.2,0.5-0.4c0.2-0.3,0-0.3,0-0.3l-0.5,0.2c0,0-0.1,0.2-0.3,0.1
			c-0.2-0.1,0,0-0.2-0.1c-0.2,0-0.1-0.4-0.5-0.2C89.5,158.7,88.9,158.9,88.9,158.9z"/>
		<path class="st0" d="M85.7,159.5h0.6h0.2c0,0,0,0.6,0,0.6c0,0,0.2,0.6-0.2,0.4c-0.3-0.2-0.6-0.5-0.6-0.5V159.5z"/>
		<path class="st0" d="M230,260.2c0.1,0,0.4,0.2,0.5,0.2c0.1,0,0.4,0,0.5,0c0.2,0,0.4,0,0.5,0c0.1,0,0.3-0.1,0.6-0.1
			c0.3,0,0.7-0.1,0.9,0c0.2,0.1,0.4,0.1,0.5,0.2c0,0.1,0.1,0.4,0.1,0.6c0,0.2-0.1,0.7-0.2,0.8c0,0.1,0,0.5,0.1,0.6
			c0.1,0.1,0.6,0.9,0.6,0.9s0.7,0.4,0.8,0.5c0.1,0.1,0.5,0.4,0.5,0.4s0.2,0.2,0,0.4c-0.2,0.2-0.3,0.5-0.4,0.7
			c-0.1,0.1-0.1,0.3-0.5,0.1c-0.4-0.2-0.7-0.2-0.8-0.4s-0.4-0.8-0.8-1c-0.4-0.2-0.4-0.1-0.9-0.2c-0.5-0.1-0.8-0.6-1.1-0.8
			c-0.2-0.2-0.8-0.1-0.8-0.9c0-0.8,0-0.9-0.1-1.1c-0.1-0.2-0.5-0.4-0.6-0.5C229.6,260.4,229.6,260,230,260.2z"/>
	</g>
	<g>
		<polygon class="st0" points="169.6,126.9 169.1,126.8 169.1,126.8 169.1,126.8 169,126.8 169,126.8 168.4,127.2 168.2,127.1 
			168.5,127.6 168.5,127.6 168.6,127.7 168.9,127.9 169.8,127.9 169.9,127.4 169.8,127.2 		"/>
		<rect x="98.7" y="95" class="st3" width="154.9" height="53.6"/>
		<rect x="98.7" y="148.6" class="st4" width="154.9" height="39.2"/>
		<g>
			<path class="st5" d="M125.3,103.7c10.1,0,18.3,8.1,18.3,18.1c0,10-8.2,18.1-18.3,18.2c-10.1,0-18.4-8.2-18.4-18.2
				C107,111.7,115.2,103.7,125.3,103.7z M132.7,122.7c-5,0-9.8,0-14.6,0c0,0.3-0.1,0.4-0.1,0.6c0.2,3.3,0.7,6.5,1.9,9.6
				c0.7,1.7,1.6,3.4,3.1,4.6c1.6,1.2,3.1,1.2,4.6-0.1c0.7-0.6,1.4-1.4,1.9-2.2C131.9,131.3,132.6,127.1,132.7,122.7z M132.7,120.9
				c-0.2-4.5-0.9-8.7-3.2-12.5c-2.5-4-5.8-3.9-8.3,0c-1.4,2.2-2.2,4.6-2.6,7.1c-0.3,1.7-0.4,3.4-0.7,5.2c0.3,0.1,0.5,0.1,0.6,0.1
				C123.2,120.9,127.8,120.9,132.7,120.9z M120.8,106.1c-6.1,1-12.2,8.5-12,14.8c2.5,0,5,0,7.5,0
				C116.6,115.6,117.4,110.5,120.8,106.1z M130.1,137.5c6.4-1.5,11.9-8.4,11.7-14.8c-2.4,0-4.9,0-7.4,0
				C134.2,127.9,133.4,133,130.1,137.5z M120.6,137.5c-3.2-4.4-4-9.5-4.3-14.6c-2.6,0-5,0-7.5,0
				C109.1,131.1,115.9,136.6,120.6,137.5z M130,106.2c3.3,4.4,4.1,9.4,4.4,14.6c2.5,0,5,0,7.4,0C141.7,114.2,136.4,107.7,130,106.2z
				"/>
			<g>
				<path class="st5" d="M188.9,128.4c2.2,0,4.3,0,6.5,0c0,1.1,0,2.1,0,3.1c0,1.3,0.5,1.8,1.8,1.8c2.3,0,4.6,0,6.8,0
					c1.3,0,1.7-0.5,1.8-1.8c0-1.1,0-2.3,0-3.4c0-1.3-0.3-1.7-1.5-2c-2.9-0.7-5.9-1.4-8.9-2.1c-1.7-0.4-3.2-1.1-4.5-2.3
					c-1.3-1.2-2.1-2.7-2.1-4.4c-0.1-2.6-0.1-5.1,0-7.7c0.1-3.4,2.5-6,5.9-6.2c3.8-0.2,7.7-0.2,11.5,0c3.3,0.2,5.6,2.8,5.8,6.1
					c0.1,1.7,0,3.5,0,5.3c-2.2,0-4.3,0-6.6,0c0-0.9,0-1.8,0-2.7c-0.1-1.4-0.5-1.8-1.8-1.8c-2.1,0-4.1,0-6.2,0
					c-1.3,0-1.7,0.4-1.8,1.7c0,1,0,1.9,0,2.9c0,1.5,0.3,1.8,1.8,2.2c2.8,0.6,5.5,1.2,8.3,1.9c1.4,0.4,2.7,0.9,4,1.7
					c1.7,1,2.9,2.6,2.9,4.6c0.1,3.1,0.2,6.2-0.1,9.3c-0.4,3.5-3,5.5-6.5,5.5c-3.4,0-6.8,0-10.3,0c-3.6,0-6.2-2-6.7-5.6
					C188.7,132.6,188.9,130.5,188.9,128.4z"/>
				<path class="st5" d="M169.8,110.4c-3,0-5.8,0-8.7,0c0-2.3,0-4.5,0-6.8c8.1,0,16.1,0,24.2,0c0,2.2,0,4.4,0,6.8
					c-2.9,0-5.7,0-8.7,0c0,9.9,0,19.7,0,29.6c-2.3,0-4.5,0-6.8,0C169.8,130.2,169.8,120.4,169.8,110.4z"/>
				<path class="st5" d="M149.5,103.6c2.3,0,4.4,0,6.6,0c0,12.1,0,24.2,0,36.3c-2.2,0-4.4,0-6.6,0
					C149.5,127.9,149.5,115.8,149.5,103.6z"/>
				<g>
					<path class="st5" d="M235.8,132.1h-11.1l-2,8.2h-7.2l11-36.7h7.8l11,36.7h-7.4L235.8,132.1z M233.9,125.1l-3.6-13.3l-3.6,13.3
						H233.9z"/>
				</g>
			</g>
		</g>
		<g>
			<text transform="matrix(1.1325 0 0 1 107.1678 176.8288)" class="st5 st6 st7">Taipei</text>
			<text transform="matrix(1.1325 0 0 1 186.5389 176.8288)" class="st5 st6 st7">2023</text>
		</g>
	</g>
	<circle cx="233.5" cy="26.6" r="2.8"/>
</g>
</svg>
